<svg width="88" height="63" viewBox="0 0 88 63" fill="none" xmlns="http://www.w3.org/2000/svg">
<path d="M70.3871 27.1377C60.6754 27.1377 52.7744 35.0387 52.7744 44.7503C52.7744 54.462 60.6754 62.363 70.3871 62.363C80.0987 62.363 87.9997 54.462 87.9997 44.7503C87.9997 35.0387 80.0987 27.1377 70.3871 27.1377ZM76.7917 44.7503C76.7917 48.2826 73.9194 51.1549 70.3871 51.1549C66.8548 51.1549 63.9825 48.2826 63.9825 44.7503C63.9825 41.218 66.8548 38.3457 70.3871 38.3457C73.9194 38.3457 76.7917 41.218 76.7917 44.7503Z" fill="#172B4D"/>
<path d="M9.6069 43.1489C4.30933 43.1489 0 47.4583 0 52.7558C0 58.0534 4.30933 62.3627 9.6069 62.3627C14.9045 62.3627 19.2138 58.0534 19.2138 52.7558C19.2138 47.4583 14.9045 43.1489 9.6069 43.1489ZM9.6069 55.9581C7.84083 55.9581 6.4046 54.5211 6.4046 52.7558C6.4046 50.9906 7.84083 49.5535 9.6069 49.5535C11.373 49.5535 12.8092 50.9906 12.8092 52.7558C12.8092 54.5211 11.373 55.9581 9.6069 55.9581Z" fill="#172B4D"/>
<path d="M28.2798 21.8698V15.5684H33.35V21.1516" stroke="#172B4D" stroke-width="3.01618" stroke-miterlimit="10" stroke-linecap="round" stroke-linejoin="round"/>
<path d="M28.2795 21.8696C20.0447 23.1502 9.42712 25.3878 5.21241 28.8135C4.78587 29.1601 4.5513 29.685 4.60205 30.2323L5.7022 40.711" stroke="#172B4D" stroke-width="3.01618" stroke-miterlimit="10" stroke-linecap="round" stroke-linejoin="round"/>
<path d="M33.35 21.1514C31.8447 21.3446 30.1219 21.5832 28.2798 21.8698" stroke="#172B4D" stroke-width="3.01618" stroke-miterlimit="10" stroke-linecap="round" stroke-linejoin="round"/>
<path d="M70.1279 18.935C69.5745 13.0186 68.7105 6.03805 67.374 2.62552C67.374 2.62552 50.0283 0.757621 39.8877 3.55963L39.0872 20.5051C39.0872 20.5051 36.785 20.7104 33.3496 21.1515" stroke="#172B4D" stroke-width="3.01618" stroke-miterlimit="10" stroke-linecap="round" stroke-linejoin="round"/>
<path d="M21.6079 51.0601H50.1673" stroke="#172B4D" stroke-width="3.01618" stroke-miterlimit="10" stroke-linecap="round" stroke-linejoin="round"/>
<path d="M50.1675 39.758C52.6284 28.6361 63.6396 21.6155 74.7611 24.0765C79.2316 25.0657 83.0396 27.4363 85.8355 30.6406" stroke="#172B4D" stroke-width="3.01618" stroke-miterlimit="10" stroke-linecap="round" stroke-linejoin="round"/>
<path d="M63.9616 8.05002C63.9616 8.05002 54.4844 6.64565 45.2778 8.51356L44.8223 30.0706H48.8277C48.8277 30.0706 53.431 22.6399 64.0743 19.104L63.9616 8.05002Z" stroke="#172B4D" stroke-width="3.01618" stroke-miterlimit="10" stroke-linecap="round" stroke-linejoin="round"/>
<path d="M30.5808 15.5681C30.5808 15.5681 31.1221 9.83057 28.5239 9.83057L30.5808 15.5681Z" fill="#172B4D"/>
<path d="M30.5808 15.5681C30.5808 15.5681 31.1221 9.83057 28.5239 9.83057" stroke="#172B4D" stroke-width="3.01618" stroke-miterlimit="10" stroke-linecap="round" stroke-linejoin="round"/>
<path d="M44.8271 29.8415H49.0865C49.0865 29.8415 53.4873 22.06 64.0743 19.104" stroke="#172B4D" stroke-width="3.01618" stroke-miterlimit="10" stroke-linecap="round" stroke-linejoin="round"/>
<path d="M12.8478 31.021V34.4154C12.8478 35.2961 12.1271 36.0166 11.2467 36.0166H9.64551" stroke="#172B4D" stroke-width="3.01618" stroke-miterlimit="10" stroke-linecap="round" stroke-linejoin="round"/>
</svg>
