<svg width="88" height="88" viewBox="0 0 88 88" fill="none" xmlns="http://www.w3.org/2000/svg">
<path d="M62.1636 7.02051C60.3642 9.80782 58.7485 12.637 57.4908 15.0369C56.1859 17.5268 56.0061 20.5465 57.3435 23.1925C57.6144 23.7287 57.9357 24.2251 58.2999 24.6785C57.8928 25.4877 57.508 26.2763 57.1494 27.0333C55.9972 29.467 55.8873 32.372 57.1965 34.9201C57.4032 35.3226 57.6386 35.7023 57.8994 36.0582H8.4257C8.09198 36.0582 7.75823 36.0712 7.42529 36.0972C11.0434 29.6156 15.9667 21.9588 20.743 16.4793C23.5693 13.237 28.418 13.237 31.2444 16.4793C31.8991 17.2303 32.5565 18.0222 33.2128 18.8465C37.6719 12.6098 42.5601 6.57157 47.2442 2.07174C50.1195 -0.690581 54.572 -0.690581 57.4475 2.07174C59.0046 3.56772 60.5844 5.23372 62.1636 7.02051Z" fill="#172B4D"/>
<path fill-rule="evenodd" clip-rule="evenodd" d="M72.6723 1.3423C73.7239 0.289545 75.4065 0.289545 76.4578 1.3423C80.3214 5.21102 84.5866 12.0924 87.3167 17.3016C87.9612 18.532 87.9905 19.8837 87.431 20.9909C86.8782 22.0846 85.7988 22.8416 84.4261 22.9968C85.6012 25.1235 86.674 27.2293 87.5698 29.121C88.1386 30.3225 88.1404 31.6235 87.5927 32.6895C87.0395 33.7664 85.9719 34.5095 84.6121 34.6563C82.9551 34.8353 80.6535 34.993 77.4932 35.0545V40.9377H78.6983C83.4175 40.9377 87.7884 44.871 87.0402 50.1178C84.0035 71.4138 65.6972 87.7858 43.5622 87.7858C21.4271 87.7858 3.12083 71.4138 0.0839777 50.1178C-0.664207 44.871 3.70669 40.9377 8.42603 40.9377H71.6372V35.0545C68.4769 34.993 66.1753 34.8353 64.518 34.6563C63.1584 34.5095 62.0909 33.7664 61.5377 32.6895C60.9899 31.6235 60.9917 30.3225 61.5605 29.121C62.4563 27.2293 63.5291 25.1235 64.7042 22.9968C63.3314 22.8416 62.2521 22.0846 61.6993 20.9909C61.1399 19.8837 61.1689 18.532 61.8137 17.3016C64.5438 12.0924 68.8087 5.21102 72.6723 1.3423ZM80.2769 49.1533C78.3353 62.7697 68.9924 74.0029 56.4543 78.6516C54.8306 73.4265 57.7426 69.9761 60.2495 67.0058C62.1656 64.7356 63.8451 62.7457 63.0825 60.4578C62.0466 58.1559 59.118 57.3794 55.8774 56.5204C51.2793 55.3011 46.053 53.9154 44.7137 47.7697H78.6985C79.2556 47.7697 79.7099 47.9975 79.9834 48.2833C80.2328 48.5439 80.3234 48.8273 80.2769 49.1533ZM8.42632 47.7697H28.6071C29.1213 49.9767 28.9841 52.2671 27.9464 54.6017C26.2454 58.4288 23.0625 59.8474 19.8502 61.279C17.5082 62.3229 15.1506 63.3737 13.3406 65.37C9.98459 60.6625 7.70131 55.1381 6.84786 49.1533C6.80138 48.8273 6.89203 48.5439 7.14144 48.2833C7.41487 47.9975 7.86914 47.7697 8.42632 47.7697Z" fill="#172B4D"/>
</svg>
