<svg width="88" height="92" viewBox="0 0 88 92" fill="none" xmlns="http://www.w3.org/2000/svg">
<path fill-rule="evenodd" clip-rule="evenodd" d="M34.4729 7.02047C35.7555 5.5874 37.6195 4.68552 39.6941 4.68552C41.7687 4.68552 43.6327 5.5874 44.9153 7.02047H42.0291H39.6941H34.4729ZM32.6893 11.6904C32.6893 15.5591 35.8253 18.6952 39.6941 18.6952V11.6904H32.6893ZM44.364 11.6904V18.6952C44.364 19.9848 45.4094 21.0302 46.699 21.0302H49.0339V11.6904H44.364ZM53.7038 11.6904V23.3651V25.7001H51.3689H46.699C44.5672 25.7001 42.6576 24.7476 41.3729 23.2453C40.8247 23.3242 40.2643 23.3651 39.6941 23.3651C33.2464 23.3651 28.0194 18.1381 28.0194 11.6904C28.0194 5.24259 33.2464 0.015625 39.6941 0.015625C44.4815 0.015625 48.5959 2.89718 50.3975 7.02047H51.3689H53.7038H56.0388V11.6904H53.7038ZM14.0097 30.37H9.33979C6.76068 30.37 4.6699 32.4607 4.6699 35.0398V49.0495C4.6699 51.6287 6.76068 53.7194 9.33979 53.7194H14.0097C16.5889 53.7194 18.6796 51.6287 18.6796 49.0495V39.7097V35.0398C18.6796 32.4607 16.5889 30.37 14.0097 30.37ZM23.3495 49.0495V39.7097V35.0398V32.7049C23.3495 31.4153 24.3948 30.37 25.6844 30.37V58.3893C25.6844 63.5475 29.8661 67.7291 35.0242 67.7291H39.6941C43.8443 67.7291 47.3623 65.0222 48.5788 61.2774L52.5279 62.5939C49.8773 69.6863 43.0378 74.734 35.0242 74.734C25.3877 74.734 17.4554 67.4368 16.4518 58.0669C20.4257 56.9933 23.3495 53.3629 23.3495 49.0495ZM44.1471 59.8003L35.5132 56.9223C33.1296 56.1277 31.5218 53.8971 31.5218 51.3845V37.3748C31.5218 34.1509 34.1353 31.5374 37.3592 31.5374C40.583 31.5374 43.1965 34.1509 43.1965 37.3748V47.1771L44.364 47.5664V35.0398C44.364 32.4607 42.2733 30.37 39.6941 30.37H30.3543V58.3893C30.3543 60.9685 32.445 63.0592 35.0242 63.0592H39.6941C41.7816 63.0592 43.5489 61.6898 44.1471 59.8003ZM30.3543 25.7001H39.6941C44.8523 25.7001 49.0339 29.8817 49.0339 35.0398V49.1229L56.9225 51.7525L69.1437 46.8124L69.9695 48.8557L73.5044 45.3108L82.5775 36.2118L85.8845 39.5092L80.7836 44.6246H88V49.2945H75.1578H70.147L70.8937 51.1419L62.6901 54.458C64.0644 55.9696 64.6036 58.1593 63.9115 60.2353C62.9406 63.148 59.8961 64.7859 56.9664 64.0548C53.7005 73.0089 45.1117 79.4039 35.0242 79.4039C22.9168 79.4039 12.9615 70.1885 11.7901 58.3893H9.33979C4.18157 58.3893 0 54.2077 0 49.0495V35.0398C0 29.8817 4.18157 25.7001 9.33979 25.7001H7.00484C5.7153 25.7001 4.6699 24.6547 4.6699 23.3651C4.6699 22.0755 5.7153 21.0302 7.00484 21.0302H16.3446C17.6342 21.0302 18.6796 22.0755 18.6796 23.3651C18.6796 24.6547 17.6342 25.7001 16.3446 25.7001H14.0097C16.4532 25.7001 18.6775 26.6382 20.3418 28.1742C21.6268 26.6607 23.5435 25.7001 25.6844 25.7001H30.3543ZM37.3592 36.2073C36.7145 36.2073 36.1917 36.7301 36.1917 37.3748V51.3845C36.1917 51.887 36.5132 52.3332 36.99 52.492L58.0046 59.4968C58.6163 59.7009 59.2773 59.3702 59.4812 58.7585C59.6852 58.1467 59.3546 57.4857 58.7429 57.2819L40.1233 51.0751C39.1697 50.7573 38.5266 49.8651 38.5266 48.8602V37.3748C38.5266 36.7301 38.0039 36.2073 37.3592 36.2073ZM14.6936 33.3888L11.6747 36.4077L8.65591 33.3888L5.35378 36.6909L8.37263 39.7097L5.35378 42.7286L8.65591 46.0307L11.6747 43.0118L14.6936 46.0307L17.9957 42.7286L14.9768 39.7097L17.9957 36.6909L14.6936 33.3888Z" fill="#172B4D"/>
</svg>
