<svg width="92" height="92" viewBox="0 0 92 92" fill="none" xmlns="http://www.w3.org/2000/svg">
<path d="M89.9584 44.063C90.3734 53.5813 87.6865 62.977 82.3019 70.8368C76.9174 78.6966 69.1263 84.5955 60.1007 87.6463C51.075 90.697 41.3027 90.7346 32.2539 87.7534C23.205 84.7723 15.3687 78.9335 9.92383 71.1153" stroke="#172B4D" stroke-width="3.13792" stroke-linecap="round"/>
<path d="M2.00983 47.0558C1.94419 43.9188 2.20754 40.7836 2.79558 37.7016C4.42008 29.2285 8.50055 21.4204 14.5291 15.2489C20.5577 9.07739 28.2682 4.81514 36.7008 2.99262C45.1334 1.1701 53.9159 1.8678 61.955 4.99888C69.9941 8.12996 76.9349 13.5561 81.9134 20.6021" stroke="#172B4D" stroke-width="3.13792" stroke-linecap="round"/>
<path d="M62.1377 18.7312L82.4363 21.1072L84.4568 2.06201" stroke="#172B4D" stroke-width="3.13792" stroke-linecap="round"/>
<path d="M29.305 72.4805L9.02506 70.1045L6.98584 89.1497" stroke="#172B4D" stroke-width="3.13792" stroke-linecap="round"/>
<path d="M59.1454 33.6421C58.1044 31.2191 56.3648 29.1615 54.1488 27.7319C51.9328 26.3023 49.3409 25.5657 46.7043 25.6162C35.4792 25.6162 35.0864 33.6421 35.0864 33.6421C35.0864 33.6421 33.4026 43.5201 47.1159 44.5865C61.353 45.6716 59.1454 55.5122 59.1454 55.5122C59.1454 55.5122 57.6861 64.0807 47.1159 64.6232C36.5456 65.1658 33.2529 54.053 33.2529 54.053" stroke="#172B4D" stroke-width="3.13792"/>
<path d="M46.6675 18.5073V72.8365" stroke="#172B4D" stroke-width="3.13792"/>
</svg>
