<svg width="88" height="88" viewBox="0 0 88 88" fill="none" xmlns="http://www.w3.org/2000/svg">
<path d="M78.8333 77.0003H9.16667C6.73641 76.9974 4.40652 76.0307 2.68807 74.3122C0.969617 72.5938 0.00291107 70.2639 0 67.8337L0 23.8337C0.00291107 21.4034 0.969617 19.0735 2.68807 17.3551C4.40652 15.6366 6.73641 14.6699 9.16667 14.667H40.3333V18.3337H9.16667C7.70798 18.3337 6.30903 18.9131 5.27758 19.9446C4.24613 20.976 3.66667 22.375 3.66667 23.8337V67.8337C3.66667 69.2923 4.24613 70.6913 5.27758 71.7227C6.30903 72.7542 7.70798 73.3337 9.16667 73.3337H78.8333C80.292 73.3337 81.691 72.7542 82.7224 71.7227C83.7539 70.6913 84.3333 69.2923 84.3333 67.8337V40.3337H88V67.8337C87.9971 70.2639 87.0304 72.5938 85.3119 74.3122C83.5935 76.0307 81.2636 76.9974 78.8333 77.0003Z" fill="#172B4D"/>
<path d="M25.667 84.333H62.3337V87.9997H25.667V84.333Z" fill="#172B4D"/>
<path d="M31.1665 75.1665H34.8332V86.1665H31.1665V75.1665Z" fill="#172B4D"/>
<path d="M53.167 75.1665H56.8337V86.1665H53.167V75.1665Z" fill="#172B4D"/>
<path d="M66 44C61.6488 44 57.3953 42.7097 53.7775 40.2923C50.1596 37.875 47.3398 34.439 45.6747 30.419C44.0095 26.3991 43.5739 21.9756 44.4227 17.708C45.2716 13.4404 47.3669 9.52042 50.4437 6.44366C53.5204 3.36691 57.4404 1.27161 61.708 0.422734C65.9756 -0.426141 70.3991 0.00953229 74.419 1.67466C78.439 3.33979 81.8749 6.15958 84.2923 9.77746C86.7097 13.3953 88 17.6488 88 22C87.9937 27.8328 85.6738 33.425 81.5494 37.5494C77.425 41.6738 71.8328 43.9937 66 44ZM66 3.66668C62.374 3.66668 58.8295 4.74191 55.8146 6.7564C52.7997 8.77089 50.4498 11.6342 49.0622 14.9841C47.6746 18.3341 47.3115 22.0203 48.0189 25.5767C48.7263 29.133 50.4724 32.3997 53.0364 34.9636C55.6003 37.5276 58.867 39.2737 62.4233 39.9811C65.9797 40.6885 69.6659 40.3254 73.0159 38.9378C76.3659 37.5502 79.2291 35.2004 81.2436 32.1855C83.2581 29.1706 84.3333 25.626 84.3333 22C84.328 17.1393 82.3947 12.4793 78.9577 9.04228C75.5207 5.60527 70.8607 3.67201 66 3.66668Z" fill="#172B4D"/>
<path d="M67.8332 23.833H64.1665C62.7078 23.833 61.3089 23.2535 60.2774 22.2221C59.246 21.1906 58.6665 19.7917 58.6665 18.333C58.6665 16.8743 59.246 15.4754 60.2774 14.4439C61.3089 13.4125 62.7078 12.833 64.1665 12.833H67.8332C69.2919 12.833 70.6908 13.4125 71.7223 14.4439C72.7537 15.4754 73.3332 16.8743 73.3332 18.333H69.6665C69.6665 17.8468 69.4734 17.3805 69.1295 17.0366C68.7857 16.6928 68.3194 16.4997 67.8332 16.4997H64.1665C63.6803 16.4997 63.214 16.6928 62.8701 17.0366C62.5263 17.3805 62.3332 17.8468 62.3332 18.333C62.3332 18.8192 62.5263 19.2856 62.8701 19.6294C63.214 19.9732 63.6803 20.1663 64.1665 20.1663H67.8332V23.833Z" fill="#172B4D"/>
<path d="M67.8332 31.1665H64.1665C62.7078 31.1665 61.3089 30.587 60.2774 29.5556C59.246 28.5241 58.6665 27.1252 58.6665 25.6665H62.3332C62.3332 26.1527 62.5263 26.619 62.8701 26.9629C63.214 27.3067 63.6803 27.4998 64.1665 27.4998H67.8332C68.3194 27.4998 68.7857 27.3067 69.1295 26.9629C69.4734 26.619 69.6665 26.1527 69.6665 25.6665C69.6665 25.1803 69.4734 24.714 69.1295 24.3701C68.7857 24.0263 68.3194 23.8332 67.8332 23.8332H64.1665V20.1665H67.8332C69.2919 20.1665 70.6908 20.746 71.7223 21.7774C72.7537 22.8089 73.3332 24.2078 73.3332 25.6665C73.3332 27.1252 72.7537 28.5241 71.7223 29.5556C70.6908 30.587 69.2919 31.1665 67.8332 31.1665Z" fill="#172B4D"/>
<path d="M64.1665 11H67.8332V14.6667H64.1665V11Z" fill="#172B4D"/>
<path d="M64.1665 29.333H67.8332V32.9997H64.1665V29.333Z" fill="#172B4D"/>
<path d="M16.4998 64.1666H9.1665V60.4999H15.7408L29.8703 46.3704C30.2141 46.0267 30.6804 45.8337 31.1665 45.8337C31.6526 45.8337 32.1189 46.0267 32.4627 46.3704L41.2498 55.1576L57.3703 39.0371L59.9627 41.6294L42.546 59.0461C42.2022 59.3898 41.736 59.5829 41.2498 59.5829C40.7637 59.5829 40.2975 59.3898 39.9537 59.0461L31.1665 50.2589L17.796 63.6294C17.4523 63.9733 16.986 64.1665 16.4998 64.1666Z" fill="#172B4D"/>
<path d="M75.1667 69.6672H71.5V66.0005H75.1667C75.6529 66.0005 76.1192 65.8073 76.463 65.4635C76.8068 65.1197 77 64.6534 77 64.1672V60.5005H80.6667V64.1672C80.6667 65.6258 80.0872 67.0248 79.0558 68.0562C78.0243 69.0877 76.6254 69.6672 75.1667 69.6672Z" fill="#172B4D"/>
<path d="M64.1665 66H67.8332V69.6667H64.1665V66Z" fill="#172B4D"/>
<path d="M11.0002 31.1662H7.3335V27.4995C7.3335 26.0408 7.91296 24.6419 8.94441 23.6104C9.97586 22.579 11.3748 21.9995 12.8335 21.9995H16.5002V25.6662H12.8335C12.3473 25.6662 11.881 25.8593 11.5371 26.2031C11.1933 26.547 11.0002 27.0133 11.0002 27.4995V31.1662Z" fill="#172B4D"/>
<path d="M20.1665 21.9995H23.8332V25.6662H20.1665V21.9995Z" fill="#172B4D"/>
</svg>
