<svg width="46" height="89" viewBox="0 0 46 89" fill="none" xmlns="http://www.w3.org/2000/svg">
<path d="M31.4639 52.2552C43.2007 41.8021 30.0885 34.3749 18.4434 28.4148C2.39708 20.0707 2.67216 7.23365 16.1511 4.94131C26.1457 3.19913 20.9192 11.6349 24.0367 18.2369C25.5038 21.3544 38.2492 19.6123 37.6991 17.7784C37.2406 16.2196 31.6473 16.5864 29.8134 14.294C28.6214 12.827 29.5384 9.52598 28.8965 7.23365C25.8706 -3.76957 6.70668 -1.29385 1.84692 8.60905C-4.02146 20.4375 5.14789 27.3145 14.5923 32.7244C24.4952 38.3177 29.2633 42.5356 31.4639 52.2552Z" fill="#172B4D"/>
<path d="M19.819 42.7192C15.6011 45.1033 11.4749 49.2295 8.17389 57.1151C0.379941 76.004 12.025 87.6491 23.9452 88.0158H23.8535L23.9452 87.6491C24.587 84.6232 26.5126 74.0784 26.6043 63.2586C26.6043 53.264 25.0455 47.2122 22.0196 44.4614C21.3778 43.8196 20.6442 43.2694 19.819 42.7192Z" fill="#172B4D"/>
<path d="M40.1748 45.5615C41.0917 46.7535 37.7908 55.1893 32.3809 58.1235C32.1975 70.5939 28.8965 83.7977 27.6128 87.9239C35.6818 87.2821 44.1176 81.322 45.6764 68.0264C46.8684 57.7568 44.4844 50.3296 40.1748 45.5615Z" fill="#172B4D"/>
</svg>
