<svg width="92" height="88" viewBox="0 0 92 88" fill="none" xmlns="http://www.w3.org/2000/svg">
<path d="M45.5452 0C39.6243 0 33.8932 1.06333 28.3519 3.19C22.7346 5.39 17.7436 8.59833 13.3789 12.815C9.01415 17.0317 5.65519 21.89 3.30202 27.39C1.10067 32.67 0 38.1883 0 43.945C0 49.7017 1.10067 55.22 3.30202 60.5C5.65519 66 9.01415 70.8583 13.3789 75.075C17.7436 79.2917 22.7346 82.5 28.3519 84.7C33.8932 86.9 39.6243 88 45.5452 88C51.466 88 57.1971 86.9 62.7385 84.7C68.3557 82.5 73.3467 79.2917 77.7114 75.075C82.0762 70.8583 85.4351 66 87.7883 60.5C89.9896 55.22 91.0903 49.7017 91.0903 43.945C91.0903 38.1883 89.9896 32.67 87.7883 27.39C85.4351 21.89 82.0762 17.0317 77.7114 12.815C73.3467 8.59833 68.3557 5.39 62.7385 3.19C57.1971 1.06333 51.466 0 45.5452 0ZM45.5452 8.25C50.4792 8.25 55.2045 9.14833 59.7211 10.945C64.2376 12.7417 68.2418 15.3267 71.7336 18.7C75.2254 22.0733 77.9012 25.9417 79.761 30.305C81.6207 34.6683 82.5506 39.2333 82.5506 44C82.5506 48.7667 81.6207 53.3133 79.761 57.64C77.9012 61.9667 75.2254 65.8167 71.7336 69.19C68.2418 72.5633 64.2376 75.1667 59.7211 77C55.2045 78.8333 50.4792 79.75 45.5452 79.75C40.6111 79.75 35.8858 78.8517 31.3692 77.055C26.8527 75.2583 22.8485 72.6733 19.3567 69.3C14.6504 64.7533 11.4622 59.3633 9.79221 53.13C8.12222 47.0433 8.12222 40.9567 9.79221 34.87C11.4622 28.6367 14.6504 23.2467 19.3567 18.7C22.8485 15.3267 26.8527 12.7417 31.3692 10.945C35.8858 9.14833 40.6111 8.25 45.5452 8.25ZM42.0154 19.58V27.61C39.7382 27.9767 37.9543 28.7467 36.6639 29.92C34.6902 31.68 33.7034 34.1367 33.7034 37.29C33.7034 39.7833 34.4245 41.8 35.8668 43.34C37.1573 44.7333 39.2068 45.7967 42.0154 46.53L42.357 46.75L45.3174 47.41C47.1392 47.85 48.3538 48.3267 48.961 48.84L49.0749 49.06C49.6063 49.5733 49.8719 50.2517 49.8719 51.095C49.8719 51.9383 49.6063 52.6533 49.0749 53.24L48.6195 53.79C47.7086 54.3033 46.4181 54.56 44.7481 54.56C43.9131 54.56 43.0022 54.4867 42.0154 54.34H41.7877C40.8009 54.12 40.0797 53.9367 39.6243 53.79C37.8025 53.2767 35.9048 52.47 33.9311 51.37V58.3C35.8289 59.0333 37.7645 59.62 39.7382 60.06C40.2695 60.1333 41.0286 60.2433 42.0154 60.39V68.31H49.0749V60.28C51.3522 59.9133 53.0981 59.18 54.3126 58.08C56.2862 56.32 57.273 53.68 57.273 50.16C57.273 47.4467 56.5899 45.3933 55.2235 44C54.009 42.68 51.9594 41.6533 49.0749 40.92L44.862 39.93C43.6474 39.6367 42.6986 39.27 42.0154 38.83L41.6738 38.72C41.0666 38.2067 40.7629 37.5467 40.7629 36.74C40.7629 35.64 41.1804 34.7967 42.0154 34.21L42.1293 34.1C42.9643 33.5867 44.2927 33.33 46.1145 33.33C47.1772 33.33 48.164 33.44 49.0749 33.66L50.5551 33.99C52.301 34.43 53.8951 35.0167 55.3374 35.75V28.93C53.4397 28.3433 51.6558 27.94 49.9858 27.72L49.0749 27.61V19.58H42.0154ZM26.9855 24.31C25.771 27.7567 24.8601 31.1117 24.2528 34.375C23.6455 37.6383 23.3419 40.81 23.3419 43.89C23.3419 46.97 23.6455 50.1233 24.2528 53.35C24.8601 56.5767 25.771 59.95 26.9855 63.47H30.5153C29.4525 59.8767 28.6934 56.54 28.238 53.46C27.7066 50.0133 27.441 46.805 27.441 43.835C27.441 40.865 27.7066 37.6567 28.238 34.21C28.6934 31.13 29.4525 27.83 30.5153 24.31H26.9855ZM60.8028 24.31C61.8655 27.9033 62.6436 31.2217 63.137 34.265C63.6304 37.3083 63.8771 40.4983 63.8771 43.835C63.8771 47.1717 63.6494 50.3617 63.1939 53.405C62.7385 56.4483 61.9414 59.8033 60.8028 63.47H64.3325C65.5471 59.95 66.439 56.5767 67.0083 53.35C67.5776 50.1233 67.8623 46.97 67.8623 43.89C67.8623 40.81 67.5776 37.6567 67.0083 34.43C66.439 31.2033 65.5471 27.83 64.3325 24.31H60.8028Z" fill="#172B4D"/>
</svg>
