<svg width="88" height="88" viewBox="0 0 88 88" fill="none" xmlns="http://www.w3.org/2000/svg">
<path d="M51.1538 87.9113H21.5662V82.0516H51.1382C55.4823 82.039 59.4134 80.2804 62.2685 77.4412L80.6672 59.0425C81.6256 58.1322 82.2217 56.8485 82.2217 55.4256C82.2217 52.6726 79.99 50.4409 77.2372 50.4409C75.822 50.4409 74.5446 51.0305 73.6373 51.9777L73.6356 51.9795L52.6264 72.9887H47.8565V67.1289C50.3561 67.1246 52.3805 65.0974 52.3805 62.5973C52.3805 62.3493 52.3606 62.1055 52.3221 61.8683L52.3256 61.8943C51.8239 59.6873 49.8786 58.0648 47.5545 58.0648C47.5193 58.0648 47.4841 58.0651 47.4491 58.0659L47.4542 58.0657H32.094L27.8477 55.964C25.866 54.9613 23.5276 54.374 21.0521 54.374C17.3989 54.374 14.0444 55.6528 11.4119 57.7873L11.4405 57.765C8.02684 60.5081 5.86035 64.6829 5.86035 69.3638C5.86035 69.4446 5.86095 69.5253 5.86224 69.6058L5.86207 69.5938V70.0586H0.00214589V69.6483C0.000858357 69.5607 0 69.4569 0 69.3529C0 62.8331 3.0209 57.019 7.73938 53.2338L7.77989 53.2024C11.379 50.2891 16.0129 48.5252 21.0587 48.5252C24.4747 48.5252 27.7019 49.3336 30.5594 50.7694L30.4375 50.7139L33.4534 52.2062H47.3487C47.406 52.2051 47.4737 52.2044 47.5414 52.2044C52.2753 52.2044 56.2944 55.2641 57.7294 59.5137L57.7517 59.5895L69.4984 47.831C71.4597 45.8754 74.1663 44.6663 77.1552 44.6663C83.1446 44.6663 88 49.5216 88 55.5111C88 58.5116 86.7814 61.2276 84.8121 63.191L66.4123 81.583C62.5012 85.4794 57.1111 87.8939 51.1571 87.9114H51.1536L51.1538 87.9113ZM47.7006 72.9885H29.0275V67.1289H47.7006V72.9885ZM14.9251 0.015625H25.3164C37.2204 0.0289295 46.8668 9.67541 46.88 21.5781V24.5091H36.4888C24.5851 24.4958 14.9385 14.8494 14.9251 2.94657V2.94537V0.015625ZM40.7471 18.6494C39.3091 11.3314 32.9503 5.88559 25.3175 5.87529H21.0583C22.4963 13.1933 28.8551 18.6392 36.4878 18.6494H36.4889H40.7471ZM51.4116 28.2595H41.0203V25.3297C41.0338 13.4256 50.6802 3.77918 62.5828 3.76587H72.9754V6.69562C72.9621 18.5996 63.3156 28.2461 51.4129 28.2593H51.4116V28.2595ZM47.1535 22.3999H51.4116C59.0454 22.3896 65.4043 16.9437 66.8258 9.72536L66.8421 9.62579H62.5841C54.9503 9.63592 48.5914 15.0819 47.1699 22.3001L47.1535 22.3999ZM46.88 36.5023H41.0204V21.5794H46.8801L46.88 36.5023ZM64.9594 60.0504L59.2676 58.6559C59.517 57.6846 59.6603 56.5694 59.6603 55.4208C59.6603 55.3386 59.6594 55.2566 59.6581 55.1748L59.6582 55.1871V55.1402C59.6314 46.4875 52.6108 39.4835 43.9543 39.4835C36.2282 39.4835 29.8051 45.0628 28.4946 52.4123L28.4806 52.5074L22.7068 51.5074C24.5253 41.2842 33.345 33.6225 43.9543 33.6225C55.8336 33.6225 65.4693 43.2283 65.518 55.0961V55.1007C65.5195 55.1954 65.5206 55.3071 65.5206 55.4192C65.5206 57.0633 65.3158 58.6596 64.9305 60.1842L64.9593 60.0503L64.9594 60.0504Z" fill="#172B4D"/>
</svg>
