<svg width="98" height="90" viewBox="0 0 98 90" fill="none" xmlns="http://www.w3.org/2000/svg">
<path d="M5 49.5146H22.6" stroke="#172B4D" stroke-width="8.76" stroke-linecap="round" stroke-linejoin="round"/>
<path d="M71 49.5146H93" stroke="#172B4D" stroke-width="8.76" stroke-linecap="round" stroke-linejoin="round"/>
<path d="M9.40002 84.7593L9.44402 84.7104" stroke="#172B4D" stroke-width="8.76" stroke-linecap="round" stroke-linejoin="round"/>
<path d="M22.6001 67.1592L22.6441 67.1104" stroke="#172B4D" stroke-width="8.76" stroke-linecap="round" stroke-linejoin="round"/>
<path d="M35.7999 84.7593L35.8439 84.7104" stroke="#172B4D" stroke-width="8.76" stroke-linecap="round" stroke-linejoin="round"/>
<path d="M49 67.1592L49.044 67.1104" stroke="#172B4D" stroke-width="8.76" stroke-linecap="round" stroke-linejoin="round"/>
<path d="M62.2 84.7593L62.244 84.7104" stroke="#172B4D" stroke-width="8.76" stroke-linecap="round" stroke-linejoin="round"/>
<path d="M75.3999 67.1592L75.4439 67.1104" stroke="#172B4D" stroke-width="8.76" stroke-linecap="round" stroke-linejoin="round"/>
<path d="M88.6001 84.7593L88.6441 84.7104" stroke="#172B4D" stroke-width="8.76" stroke-linecap="round" stroke-linejoin="round"/>
<path d="M35.7999 53.9146C35.7999 53.9146 39.7599 37.4535 48.9999 27.5146" stroke="#172B4D" stroke-width="8.76" stroke-linecap="round" stroke-linejoin="round"/>
<path d="M67.4175 6.57614L69.0648 23.6889C70.134 34.7903 61.8105 44.6747 50.7089 45.7435C39.8161 46.7924 29.9484 38.8304 28.8995 27.9376C27.8506 17.0447 35.8308 7.36404 46.7238 6.31522L64.9693 4.55834C66.2026 4.43958 67.2987 5.34299 67.4175 6.57614Z" stroke="#172B4D" stroke-width="8.76" stroke-linecap="round" stroke-linejoin="round"/>
</svg>
