<svg width="88" height="93" viewBox="0 0 88 93" fill="none" xmlns="http://www.w3.org/2000/svg">
<path fill-rule="evenodd" clip-rule="evenodd" d="M21.9409 4.8208H17.6154C12.751 4.8208 8.80762 8.76421 8.80762 13.6286V75.2837C8.80762 80.148 12.751 84.0915 17.6154 84.0915H61.6546C66.5192 84.0915 70.4625 80.148 70.4625 75.2837V13.6286C70.4625 8.76421 66.5192 4.8208 61.6546 4.8208H57.1723V5.50462V7.70839V9.22472H61.6546C64.0869 9.22472 66.0585 11.1964 66.0585 13.6286V75.2837C66.0585 77.7158 64.0869 79.6876 61.6546 79.6876H17.6154C15.1833 79.6876 13.2115 77.7158 13.2115 75.2837V13.6286C13.2115 11.1964 15.1833 9.22472 17.6154 9.22472H21.9409V7.70839V5.50462V4.8208ZM32.9507 9.22472H46.1625V7.70839V5.50462V4.8208H32.9507V5.50462V7.70839V9.22472Z" fill="#172B4D"/>
<path fill-rule="evenodd" clip-rule="evenodd" d="M21.9409 28.6253C21.9409 27.4092 22.9267 26.4233 24.1429 26.4233H54.9703C56.1865 26.4233 57.1723 27.4092 57.1723 28.6253C57.1723 29.8414 56.1865 30.8273 54.9703 30.8273H24.1429C22.9267 30.8273 21.9409 29.8414 21.9409 28.6253Z" fill="#172B4D"/>
<path fill-rule="evenodd" clip-rule="evenodd" d="M22.0195 40.053C22.0195 38.8369 23.0056 37.8511 24.2215 37.8511H55.049C56.2651 37.8511 57.2509 38.8369 57.2509 40.053C57.2509 41.269 56.2651 42.255 55.049 42.255H24.2215C23.0056 42.255 22.0195 41.269 22.0195 40.053Z" fill="#172B4D"/>
<path fill-rule="evenodd" clip-rule="evenodd" d="M22.0195 51.0623C22.0195 49.8462 23.0056 48.8604 24.2215 48.8604H55.049C56.2651 48.8604 57.2509 49.8462 57.2509 51.0623C57.2509 52.2782 56.2651 53.2643 55.049 53.2643H24.2215C23.0056 53.2643 22.0195 52.2782 22.0195 51.0623Z" fill="#172B4D"/>
<path fill-rule="evenodd" clip-rule="evenodd" d="M22.0195 62.1922C22.0195 60.9763 23.0056 59.9902 24.2215 59.9902H41.8372C43.0533 59.9902 44.0392 60.9763 44.0392 62.1922C44.0392 63.4083 43.0533 64.3942 41.8372 64.3942H24.2215C23.0056 64.3942 22.0195 63.4083 22.0195 62.1922Z" fill="#172B4D"/>
<path fill-rule="evenodd" clip-rule="evenodd" d="M2.20198 15.3193C3.41811 15.3193 4.40395 16.3052 4.40395 17.5213L4.40392 77.068C4.40392 83.1485 9.33319 88.0778 15.4136 88.0778H57.3934C58.6093 88.0778 59.5954 89.0636 59.5954 90.2798C59.5954 91.4957 58.6093 92.4817 57.3934 92.4817H15.4136C6.90097 92.4817 0 85.5806 0 77.068L2.20495e-05 17.5213C2.20495e-05 16.3052 0.985884 15.3193 2.20198 15.3193Z" fill="#172B4D"/>
<path fill-rule="evenodd" clip-rule="evenodd" d="M83.5959 37.4332H79.192V71.1966L81.394 74.1327L83.5959 71.1966V37.4332ZM87.9999 72.6646L81.394 81.4725L74.7881 72.6646V33.0293H87.9999V72.6646Z" fill="#172B4D"/>
<path fill-rule="evenodd" clip-rule="evenodd" d="M83.5959 22.0192H79.192V26.4231H83.5959V22.0192ZM79.192 17.6152H83.5959C86.0282 17.6152 87.9999 19.5869 87.9999 22.0192V30.827H74.7881V22.0192C74.7881 19.5869 76.7597 17.6152 79.192 17.6152Z" fill="#172B4D"/>
<path fill-rule="evenodd" clip-rule="evenodd" d="M51.6672 0C53.4913 0 54.9701 1.47877 54.9701 3.30294V9.91063C54.9701 11.7348 53.4913 13.2136 51.6672 13.2136C49.8431 13.2136 48.3643 11.7348 48.3643 9.91063V3.30294C48.3643 1.47877 49.8431 0 51.6672 0Z" fill="#172B4D"/>
<path fill-rule="evenodd" clip-rule="evenodd" d="M27.4641 0C29.2884 0 30.767 1.47877 30.767 3.30294V9.91063C30.767 11.7348 29.2884 13.2136 27.4641 13.2136C25.64 13.2136 24.1611 11.7348 24.1611 9.91063V3.30294C24.1611 1.47877 25.64 0 27.4641 0Z" fill="#172B4D"/>
</svg>
