<svg width="55" height="85" viewBox="0 0 55 85" fill="none" xmlns="http://www.w3.org/2000/svg">
<path d="M20.1961 7.81201C24.4292 7.81201 27.8924 11.2855 27.8924 15.5307C27.8924 19.7762 24.4292 23.2496 20.1961 23.2496C15.9632 23.2496 12.5 19.7762 12.5 15.5307C12.5 11.2855 15.9632 7.81201 20.1961 7.81201Z" fill="#172B4D"/>
<path d="M50.9809 34.8278H31.7404V81.1406C31.7404 83.2633 30.0089 85.0001 27.8924 85.0001C25.7758 85.0001 24.0443 83.2633 24.0443 81.1406V61.8436H16.348V81.1406C16.348 83.2633 14.6165 85.0001 12.5 85.0001C10.3834 85.0001 8.65189 83.2633 8.65189 81.1406V34.8278V52.4563C6.53547 52.4563 0 48.416 0 38.467C0 30.9684 6.53547 27.1089 8.65189 27.1089H50.9809C53.0973 27.1089 54.8291 28.8457 54.8291 30.9683C54.8291 33.091 53.0973 34.8278 50.9809 34.8278Z" fill="#172B4D"/>
<path d="M46.9287 22.0596V83.0573H42.8929V22.0596C40.6142 21.5923 38.5666 20.3501 37.0959 18.5432C35.625 16.7362 34.8218 14.4755 34.8213 12.1429V0H38.8571V14.1666H42.8929V0H46.9287V14.1666H50.9644V0H55.0002V12.1429C55 14.4755 54.1965 16.7362 52.7258 18.5432C51.2549 20.3501 49.2073 21.5923 46.9287 22.0596Z" fill="#172B4D"/>
</svg>
