<svg width="88" height="89" viewBox="0 0 88 89" fill="none" xmlns="http://www.w3.org/2000/svg">
<path d="M84.3326 84.894H82.4991V37.2212C84.03 37.0199 85.4344 36.2655 86.4477 35.1003C87.4609 33.9351 88.013 32.4395 87.9998 30.8954C87.9998 26.5682 84.5343 25.138 80.6655 22.6077V7.8841C80.6655 7.39781 80.4723 6.93143 80.1285 6.58757C79.7846 6.24371 79.3182 6.05053 78.8319 6.05053H67.8305C67.3442 6.05053 66.8778 6.24371 66.534 6.58757C66.1901 6.93143 65.9969 7.39781 65.9969 7.8841V13.1281L48.9997 2.03501C47.5106 1.06453 45.7715 0.547852 43.9941 0.547852C42.2167 0.547852 40.4776 1.06453 38.9885 2.03501L2.9038 25.5597C1.8135 26.2779 0.966652 27.3099 0.475043 28.5193C-0.0165657 29.7288 -0.129814 31.0589 0.150249 32.3341C0.430312 33.6093 1.09052 34.7696 2.0437 35.6617C2.99689 36.5539 4.19823 37.136 5.48913 37.3312V84.894H3.65556C3.16927 84.894 2.70289 85.0872 2.35903 85.4311C2.01517 85.7749 1.82199 86.2413 1.82199 86.7276C1.82199 87.2139 2.01517 87.6803 2.35903 88.0241C2.70289 88.368 3.16927 88.5612 3.65556 88.5612H84.3326C84.8189 88.5612 85.2853 88.368 85.6292 88.0241C85.973 87.6803 86.1662 87.2139 86.1662 86.7276C86.1662 86.2413 85.973 85.7749 85.6292 85.4311C85.2853 85.0872 84.8189 84.894 84.3326 84.894ZM69.6641 9.71767H76.9984V20.2974L69.6641 15.5118V9.71767ZM3.65556 30.9687C3.65556 28.8235 2.11536 30.4737 40.987 5.11541C41.8813 4.5316 42.9261 4.22072 43.9941 4.22072C45.062 4.22072 46.1069 4.5316 47.0012 5.11541L83.0675 28.6401C83.6826 29.0413 84.1132 29.6704 84.2645 30.3891C84.4158 31.1078 84.2754 31.8571 83.8742 32.4723C83.473 33.0874 82.8439 33.518 82.1252 33.6693C81.4066 33.8206 80.6572 33.6802 80.0421 33.279L45.0026 10.4328C43.5357 9.47931 45.6993 8.59919 7.94611 33.279C7.52885 33.5536 7.04508 33.7102 6.54607 33.7321C6.04706 33.7541 5.5514 33.6407 5.11161 33.4039C4.67182 33.1671 4.30429 32.8157 4.04795 32.387C3.79162 31.9583 3.65603 31.4682 3.65556 30.9687ZM27.492 66.5583H23.8248V35.3876C23.8299 35.0266 23.9415 34.675 24.1456 34.3772C24.3497 34.0793 24.6372 33.8483 24.9721 33.7131C25.307 33.578 25.6743 33.5448 26.028 33.6176C26.3817 33.6904 26.706 33.8661 26.9602 34.1225C27.7303 34.8559 27.492 32.8023 27.492 66.5583ZM31.1591 70.2255C31.6454 70.2255 32.1118 70.4187 32.4556 70.7625C32.7995 71.1064 32.9927 71.5728 32.9927 72.0591V73.8926H18.3241V72.0591C18.3241 71.5728 18.5173 71.1064 18.8612 70.7625C19.205 70.4187 19.6714 70.2255 20.1577 70.2255H31.1591ZM16.8206 84.894L18.0491 77.5598H33.2677L34.4962 84.894H16.8206ZM69.6641 57.3905C69.9049 57.4073 70.14 57.4715 70.356 57.5792C70.572 57.6869 70.7647 57.8361 70.923 58.0183C71.0814 58.2005 71.2023 58.412 71.2788 58.641C71.3554 58.8699 71.3861 59.1116 71.3693 59.3524C71.3524 59.5932 71.2883 59.8283 71.1806 60.0443C71.0729 60.2603 70.9237 60.453 70.7415 60.6113C70.5593 60.7697 70.3477 60.8906 70.1188 60.9672C69.8899 61.0438 69.6482 61.0745 69.4074 61.0576H58.6627V57.3905H69.6641ZM54.9955 66.5583H49.4948V55.5569H54.9955V66.5583ZM45.8277 61.0576H40.327C39.8407 61.0576 39.3743 60.8645 39.0304 60.5206C38.6866 60.1767 38.4934 59.7104 38.4934 59.2241C38.4934 58.7378 38.6866 58.2714 39.0304 57.9275C39.3743 57.5837 39.8407 57.3905 40.327 57.3905H45.8277V61.0576ZM45.2959 84.894C44.834 84.8955 44.3886 84.7226 44.0486 84.4099C43.7087 84.0971 43.4993 83.6676 43.4624 83.2072L42.0505 64.7248H45.8277V68.3919C45.8277 68.8782 46.0208 69.3446 46.3647 69.6884C46.7086 70.0323 47.1749 70.2255 47.6612 70.2255H56.8291C57.3154 70.2255 57.7818 70.0323 58.1256 69.6884C58.4695 69.3446 58.6627 68.8782 58.6627 68.3919V64.7248H67.4271L65.9969 83.2072C65.96 83.6676 65.7506 84.0971 65.4107 84.4099C65.0707 84.7226 64.6253 84.8955 64.1634 84.894H45.2959ZM69.334 84.894C69.7374 83.7939 69.5357 85.1507 71.1676 64.5047C72.4358 64.135 73.5286 63.3211 74.2462 62.212C74.9638 61.1029 75.2583 59.7725 75.0758 58.4642C74.8933 57.1558 74.2461 55.9568 73.2525 55.0863C72.2588 54.2159 70.9851 53.7321 69.6641 53.7233H58.1493C56.7557 51.3397 54.4821 51.8898 49.4948 51.8898C48.8548 51.8936 48.227 52.0649 47.6738 52.3866C47.1205 52.7082 46.661 53.1691 46.3411 53.7233H40.327C39.0502 53.7329 37.8165 54.1863 36.8374 55.0059C35.8583 55.8255 35.1948 56.9601 34.9607 58.2153C34.7266 59.4704 34.9364 60.768 35.5542 61.8854C36.172 63.0028 37.1592 63.8705 38.3467 64.3397L39.8136 83.4822C39.9602 85.3158 40.9504 84.894 38.2184 84.894C36.3848 73.7093 36.6598 76.753 36.6598 72.0591C36.6598 70.6002 36.0803 69.201 35.0487 68.1695C34.0171 67.1379 32.618 66.5583 31.1591 66.5583V35.3876C31.1591 33.9288 30.5796 32.5296 29.548 31.4981C28.5164 30.4665 27.1173 29.8869 25.6584 29.8869C24.1995 29.8869 22.8004 30.4665 21.7688 31.4981C20.7372 32.5296 20.1577 33.9288 20.1577 35.3876V66.5583C18.6988 66.5583 17.2997 67.1379 16.2681 68.1695C15.2365 69.201 14.657 70.6002 14.657 72.0591C14.657 76.753 14.9687 73.7093 13.0984 84.894H9.15627C9.15627 31.4088 8.80789 37.0929 9.9447 36.3594L43.9941 14.1549L78.0435 36.3594C79.162 37.0929 78.8319 31.3538 78.8319 84.894H69.334Z" fill="#172B4D"/>
</svg>
