<svg width="84" height="86" viewBox="0 0 84 86" fill="none" xmlns="http://www.w3.org/2000/svg">
<path d="M39.2815 5.22363C39.2815 5.22363 50.1717 13.5665 49.29 26.9297C48.4451 39.7326 41.2591 44.3188 41.2591 44.3188C41.2591 44.3188 39.1546 39.6982 36.003 36.4134C34.7798 35.1644 33.7961 33.7016 33.1008 32.0976C31.443 28.1648 31.2269 23.7731 32.4905 19.6965C32.9516 18.1983 33.6275 16.7748 34.497 15.4705C35.7369 13.5789 38.005 9.73726 39.2815 5.22363Z" fill="white"/>
<path d="M37.8452 49.2795C37.0007 48.5088 36.3579 47.543 35.9727 46.4666C34.8127 43.2747 32.7852 40.4698 30.1182 38.3673C25.1635 34.4036 18.1548 36.215 15.5796 37.0848C15.4585 37.1252 15.3474 37.1908 15.2534 37.2772C15.1594 37.3637 15.0848 37.469 15.0344 37.5863C14.984 37.7037 14.959 37.8303 14.9611 37.958C14.9631 38.0856 14.9921 38.2114 15.0461 38.3271C15.3721 39.0235 15.6164 39.7552 15.774 40.5078C16.2659 42.8418 17.8641 47.4833 22.9693 50.1303C25.597 51.4828 28.5922 51.9473 31.5062 51.4541C32.8722 51.236 34.2719 51.3996 35.5508 51.9268C36.8297 52.454 37.9381 53.3243 38.7536 54.4416C39.676 55.6955 40.4307 57.0645 40.9984 58.5139V52.8598C40.0974 51.5422 39.0384 50.3398 37.8452 49.2795Z" fill="#172B4D"/>
<path d="M44.0278 57.2238C44.0278 57.2238 47.3542 55.2022 53.9882 55.8114C57.1796 56.1414 60.3958 55.4915 63.2087 53.9482C67.1465 51.7273 71.3678 47.1234 72.5023 37.5909C72.5023 37.5909 70.314 38.1716 66.9887 37.5928C66.0509 37.4217 65.0986 37.3437 64.1455 37.36C60.3062 37.4575 52.1173 38.8658 48.6529 48.6575L44.0278 57.2238Z" fill="white"/>
<path d="M41.2588 60.4148C41.2588 60.4148 41.7023 56.3139 45.0901 52.0786C48.3998 47.9391 53.2981 45.4168 58.5672 44.8253C59.4337 44.727 60.3053 44.6797 61.1773 44.6839C61.7958 44.7258 62.4169 44.6695 63.0178 44.5171C63.1434 44.486 63.2757 44.4976 63.394 44.55C63.5123 44.6025 63.6097 44.6928 63.671 44.8068C63.7322 44.9207 63.7538 45.0518 63.7323 45.1794C63.7107 45.307 63.6474 45.4238 63.5521 45.5113C62.6856 46.2743 61.6093 46.7585 60.4635 46.9009C60.4635 46.9009 45.6586 48.2676 43.5051 61.3603L41.2588 60.4148Z" fill="#172B4D"/>
<path d="M40.9131 22.1953C40.9121 22.0537 40.8595 21.9174 40.7652 21.8118C40.6709 21.7062 40.5414 21.6385 40.4009 21.6214C40.2603 21.6044 40.1184 21.6391 40.0016 21.7191C39.8847 21.7991 39.8011 21.9188 39.7661 22.0561C38.3903 27.3563 38.119 32.8828 38.9692 38.2924C40.7506 49.969 40.3738 70.12 40.3738 70.12H43.2813C43.7943 59.6235 43.4201 49.1024 42.1629 38.6689C42.1629 38.6689 40.9992 29.9636 40.9131 22.1953Z" fill="#172B4D"/>
<path d="M43.282 70.1192C43.282 70.1192 43.505 66.738 43.5052 61.3594L40.3957 62.581C40.4322 67.0351 40.3745 70.1192 40.3745 70.1192H43.282Z" fill="#172B4D"/>
<path d="M42.8394 69.4551C42.8394 69.4551 50.0455 69.423 55.1588 77.7378C56.0683 79.2451 57.2325 80.5831 58.5996 81.6922C59.481 82.4033 60.4542 82.9925 61.4928 83.444C61.5664 83.4746 61.627 83.5299 61.6644 83.6003C61.7018 83.6707 61.7136 83.7519 61.6978 83.83C61.682 83.9081 61.6395 83.9783 61.5777 84.0287C61.5159 84.079 61.4385 84.1063 61.3588 84.1059H52.6056L42.8394 69.4551Z" fill="#172B4D"/>
<path d="M24.1654 84.1071H55.6176C54.6511 82.9192 53.7899 81.6493 53.044 80.3118C52.4126 79.19 51.8668 78.0221 51.4111 76.8181C50.6941 74.9479 49.5834 73.2536 48.1544 71.8501C46.6485 70.4311 44.6957 69.5803 42.6311 69.4438C40.5664 69.3072 38.5186 69.8933 36.8389 71.1016C35.0956 72.3437 32.9917 74.2635 30.6797 77.2309C28.9436 79.4592 26.3903 81.8909 23.9486 83.3112C23.8674 83.3586 23.8042 83.4314 23.7686 83.5184C23.733 83.6054 23.7271 83.7016 23.7518 83.7923C23.7765 83.883 23.8305 83.963 23.9052 84.0199C23.98 84.0768 24.0715 84.1074 24.1654 84.1071Z" fill="white"/>
<path d="M73.932 0.925781H56.922C55.9949 0.925781 55.1057 1.29408 54.4501 1.94965C53.7946 2.60522 53.4263 3.49436 53.4263 4.42148C53.4263 5.3486 53.7946 6.23774 54.4501 6.89332C55.1057 7.54889 55.9949 7.91718 56.922 7.91718H73.932V0.925781Z" fill="white"/>
<path d="M64.5733 14.2119H56.9213C55.9944 14.2119 55.1054 14.5801 54.4499 15.2356C53.7945 15.891 53.4263 16.78 53.4263 17.707C53.4263 18.6339 53.7945 19.5229 54.4499 20.1783C55.1054 20.8338 55.9944 21.202 56.9213 21.202H64.5733V14.2119Z" fill="white"/>
<path d="M79.4192 14.2119H64.5732V21.2038H79.4192C80.3462 21.2038 81.2351 20.8356 81.8906 20.1802C82.546 19.5247 82.9143 18.6357 82.9143 17.7088C82.9145 17.2497 82.8243 16.795 82.6487 16.3707C82.4732 15.9465 82.2158 15.561 81.8912 15.2362C81.5667 14.9115 81.1813 14.6539 80.7571 14.4781C80.333 14.3024 79.8783 14.2119 79.4192 14.2119Z" fill="#172B4D"/>
<path d="M79.4186 0.925781H73.9316V7.91718H79.4186C80.3455 7.91718 81.2345 7.54896 81.8899 6.89351C82.5454 6.23806 82.9136 5.34909 82.9136 4.42214C82.9136 3.4952 82.5454 2.60623 81.8899 1.95078C81.2345 1.29533 80.3455 0.927105 79.4186 0.927105V0.925781Z" fill="#172B4D"/>
<path d="M28.093 40.5762C27.9004 40.5761 27.7129 40.515 27.5573 40.4016C27.4017 40.2881 27.2861 40.1283 27.2271 39.945L21.0025 20.5997C20.7894 19.9323 20.3693 19.3502 19.8032 18.9376C19.237 18.525 18.5541 18.3034 17.8536 18.3049H0.909769C0.668483 18.3049 0.43708 18.2091 0.266465 18.0384C0.0958504 17.8678 0 17.6364 0 17.3951C0 17.1538 0.0958504 16.9224 0.266465 16.7518C0.43708 16.5812 0.668483 16.4854 0.909769 16.4854H17.8536C18.9394 16.4829 19.9979 16.8263 20.8755 17.4658C21.7531 18.1053 22.4043 19.0077 22.7347 20.0421L28.959 39.3877C29.003 39.5241 29.0141 39.6691 28.9915 39.8107C28.9688 39.9523 28.9129 40.0865 28.8285 40.2024C28.744 40.3182 28.6334 40.4125 28.5056 40.4775C28.3777 40.5425 28.2364 40.5763 28.093 40.5762Z" fill="#172B4D"/>
<path d="M18.1759 23.3637H7.74266C7.50402 23.3597 7.27654 23.262 7.10922 23.0918C6.9419 22.9216 6.84814 22.6925 6.84814 22.4538C6.84814 22.2152 6.9419 21.9861 7.10922 21.8159C7.27654 21.6457 7.50402 21.548 7.74266 21.5439H18.1748C18.4134 21.548 18.6409 21.6457 18.8083 21.8159C18.9756 21.9861 19.0693 22.2152 19.0693 22.4538C19.0693 22.6925 18.9756 22.9216 18.8083 23.0918C18.6409 23.262 18.4134 23.3597 18.1748 23.3637H18.1759Z" fill="#172B4D"/>
<path d="M18.1763 28.4226H0.909769C0.668483 28.4226 0.43708 28.3267 0.266465 28.1561C0.0958504 27.9855 0 27.7541 0 27.5128C0 27.2715 0.0958504 27.0401 0.266465 26.8695C0.43708 26.6989 0.668483 26.603 0.909769 26.603H18.1763C18.4176 26.603 18.649 26.6989 18.8196 26.8695C18.9902 27.0401 19.0861 27.2715 19.0861 27.5128C19.0861 27.7541 18.9902 27.9855 18.8196 28.1561C18.649 28.3267 18.4176 28.4226 18.1763 28.4226Z" fill="#172B4D"/>
<path d="M81.8793 64.7398H67.341C66.4106 64.7364 65.503 64.4517 64.7374 63.9229C63.9718 63.3942 63.3842 62.6461 63.0516 61.7772L59.2431 51.7189C59.1624 51.4942 59.1731 51.2469 59.273 51.0301C59.373 50.8133 59.5541 50.6444 59.7773 50.5599C60.0006 50.4754 60.2481 50.482 60.4666 50.5783C60.685 50.6746 60.8569 50.8529 60.9451 51.0747L64.7536 61.133C64.9541 61.6573 65.3086 62.1086 65.7705 62.4276C66.2323 62.7467 66.7799 62.9184 67.3413 62.9202H81.8796C82.1209 62.9202 82.3523 63.0161 82.5229 63.1867C82.6935 63.3573 82.7893 63.5887 82.7893 63.83C82.7893 64.0713 82.6935 64.3027 82.5229 64.4733C82.3523 64.6439 82.1209 64.7398 81.8796 64.7398H81.8793Z" fill="#172B4D"/>
<path d="M81.8801 69.7985H70.4947C70.2534 69.7985 70.022 69.7027 69.8514 69.5321C69.6808 69.3615 69.585 69.1301 69.585 68.8888C69.585 68.6475 69.6808 68.4161 69.8514 68.2455C70.022 68.0749 70.2534 67.979 70.4947 67.979H81.8801C82.1214 67.979 82.3528 68.0749 82.5234 68.2455C82.694 68.4161 82.7899 68.6475 82.7899 68.8888C82.7899 69.1301 82.694 69.3615 82.5234 69.5321C82.3528 69.7027 82.1214 69.7985 81.8801 69.7985Z" fill="#172B4D"/>
<path d="M76.3633 74.8576H64.8019C64.5606 74.8576 64.3292 74.7618 64.1586 74.5912C63.9879 74.4205 63.8921 74.1891 63.8921 73.9479C63.8921 73.7066 63.9879 73.4752 64.1586 73.3046C64.3292 73.1339 64.5606 73.0381 64.8019 73.0381H76.3633C76.6046 73.0381 76.836 73.1339 77.0066 73.3046C77.1772 73.4752 77.2731 73.7066 77.2731 73.9479C77.2731 74.1891 77.1772 74.4205 77.0066 74.5912C76.836 74.7618 76.6046 74.8576 76.3633 74.8576Z" fill="#172B4D"/>
<path d="M40.3746 74.9826C40.9461 74.9826 41.4093 74.5193 41.4093 73.9478C41.4093 73.3764 40.9461 72.9131 40.3746 72.9131C39.8031 72.9131 39.3398 73.3764 39.3398 73.9478C39.3398 74.5193 39.8031 74.9826 40.3746 74.9826Z" fill="#172B4D"/>
<path d="M41.9395 79.0885C42.511 79.0885 42.9743 78.6253 42.9743 78.0538C42.9743 77.4823 42.511 77.019 41.9395 77.019C41.3681 77.019 40.9048 77.4823 40.9048 78.0538C40.9048 78.6253 41.3681 79.0885 41.9395 79.0885Z" fill="#172B4D"/>
<path d="M36.3761 78.8336C36.9475 78.8336 37.4108 78.3704 37.4108 77.7989C37.4108 77.2274 36.9475 76.7642 36.3761 76.7642C35.8046 76.7642 35.3413 77.2274 35.3413 77.7989C35.3413 78.3704 35.8046 78.8336 36.3761 78.8336Z" fill="#172B4D"/>
<path d="M2.89782 21.5439H1.23106C0.728607 21.5439 0.321289 21.9513 0.321289 22.4537C0.321289 22.9562 0.728607 23.3635 1.23106 23.3635H2.89782C3.40027 23.3635 3.80759 22.9562 3.80759 22.4537C3.80759 21.9513 3.40027 21.5439 2.89782 21.5439Z" fill="#172B4D"/>
<path d="M66.0616 67.979H64.9342C64.4317 67.979 64.0244 68.3863 64.0244 68.8888C64.0244 69.3912 64.4317 69.7985 64.9342 69.7985H66.0616C66.564 69.7985 66.9714 69.3912 66.9714 68.8888C66.9714 68.3863 66.564 67.979 66.0616 67.979Z" fill="#172B4D"/>
<path d="M81.88 74.9826C82.4514 74.9826 82.9147 74.5193 82.9147 73.9478C82.9147 73.3764 82.4514 72.9131 81.88 72.9131C81.3085 72.9131 80.8452 73.3764 80.8452 73.9478C80.8452 74.5193 81.3085 74.9826 81.88 74.9826Z" fill="#172B4D"/>
<path d="M72.2731 36.7103C72.253 36.7158 70.2079 37.229 67.146 36.696C66.1493 36.5136 65.1369 36.4312 64.1239 36.45C60.4964 36.5421 51.6556 37.8612 47.8944 48.084C46.5868 49.0771 45.4065 50.2275 44.3801 51.5091C44.3131 51.593 44.2477 51.6794 44.1828 51.7643C44.057 49.1619 43.8706 46.3849 43.6003 43.4996C45.858 41.2054 49.5964 36.0907 50.1969 26.989C51.1006 13.2972 40.2943 4.85378 39.8341 4.50057C39.7163 4.41025 39.5781 4.35017 39.4317 4.32556C39.2852 4.30096 39.135 4.31258 38.9941 4.35941C38.8532 4.40623 38.7259 4.48685 38.6233 4.59421C38.5207 4.70157 38.446 4.83242 38.4057 4.97531C37.1612 9.37059 34.9458 13.1246 33.7353 14.9709C32.8175 16.3487 32.104 17.8521 31.6171 19.4344C30.2941 23.7135 30.522 28.3221 32.2607 32.4498C32.9992 34.1567 34.0451 35.7134 35.3462 37.0423C36.4821 38.2552 37.4964 39.5766 38.3744 40.9874C38.3874 41.0076 38.4038 41.0237 38.4178 41.0428C39.5688 50.9372 39.523 64.8019 39.4809 68.8591C38.3421 69.1679 37.2674 69.6768 36.3068 70.3619C34.1727 71.8833 32.0378 74.0055 29.962 76.6699C27.9164 79.3068 25.3356 81.4806 22.3894 83.0481C22.2335 83.1302 22.0753 83.2111 21.9146 83.2909C21.7312 83.3825 21.5841 83.5333 21.4971 83.7189C21.4101 83.9045 21.3884 84.1141 21.4353 84.3136C21.4823 84.5132 21.5953 84.691 21.756 84.8183C21.9166 84.9457 22.1155 85.015 22.3205 85.0151H63.6772C63.9042 85.0152 64.1231 84.9302 64.2908 84.7771C64.4584 84.624 64.5628 84.4137 64.5833 84.1875C64.6038 83.9614 64.539 83.7357 64.4016 83.5549C64.2642 83.3741 64.0642 83.2513 63.8408 83.2104C62.1216 82.8658 60.5151 82.099 59.1659 80.9792C57.881 79.9361 56.7872 78.6776 55.9333 77.2599C51.9423 70.77 46.7469 69.1122 44.2662 68.6891C44.3319 67.1907 44.4137 64.6555 44.4142 61.3855C44.4142 61.3821 44.4142 61.3784 44.4142 61.3746C44.4142 61.0336 44.4133 60.6848 44.4116 60.3283C44.4238 60.3071 44.438 60.2869 44.4476 60.2644C44.9113 59.2762 45.4299 58.3148 46.001 57.3845C47.5743 56.8814 50.1906 56.3751 53.9051 56.7159C55.289 56.8454 56.6834 56.8127 58.0597 56.6182C58.1806 56.6045 58.2975 56.5666 58.4036 56.5069C58.5096 56.4472 58.6026 56.3668 58.677 56.2705C58.7514 56.1742 58.8057 56.064 58.8368 55.9463C58.8678 55.8287 58.8749 55.706 58.8577 55.5855C58.8405 55.465 58.7993 55.3493 58.7365 55.245C58.6737 55.1408 58.5907 55.0502 58.4923 54.9786C58.3939 54.907 58.2821 54.8559 58.1636 54.8282C58.0451 54.8006 57.9222 54.797 57.8023 54.8177C56.5664 54.9916 55.3144 55.0208 54.0716 54.9049C51.9003 54.6836 49.7089 54.7596 47.5582 55.131C53.2199 47.8414 60.1069 47.7967 60.4496 47.8094C60.4994 47.809 60.5492 47.8057 60.5986 47.7993C64.6886 47.1829 65.6376 44.0549 65.676 43.922C65.7293 43.7374 65.7229 43.5406 65.6575 43.3599C65.5921 43.1792 65.4712 43.0238 65.3121 42.9161C65.153 42.8083 64.9638 42.7537 64.7718 42.7601C64.5797 42.7665 64.3946 42.8335 64.243 42.9516C62.9885 43.9286 61.2841 43.779 61.2706 43.7779C61.2412 43.7747 61.2118 43.7734 61.1825 43.7732C60.2745 43.7689 59.3671 43.8179 58.4648 43.9198C55.7421 44.2164 53.0999 45.0249 50.6775 46.3028C54.2612 39.5868 60.5234 38.3614 64.1694 38.2687C65.0625 38.2536 65.955 38.3272 66.8336 38.4885C68.352 38.7623 69.9007 38.8274 71.4367 38.6818C70.3702 45.6419 67.455 50.5077 62.7611 53.155C62.2586 53.4382 61.7384 53.689 61.2039 53.9059C61.0932 53.9508 60.9924 54.0171 60.9073 54.101C60.8223 54.1849 60.7545 54.2847 60.708 54.3948C60.6615 54.5048 60.6371 54.623 60.6363 54.7425C60.6354 54.8619 60.6581 54.9804 60.7031 55.0911C60.748 55.2018 60.8143 55.3026 60.8982 55.3877C60.9821 55.4728 61.0819 55.5405 61.192 55.587C61.3021 55.6335 61.4202 55.6579 61.5397 55.6587C61.6592 55.6596 61.7776 55.6369 61.8884 55.5919C62.4948 55.3457 63.0849 55.0611 63.6552 54.7399C67.4312 52.6103 72.1879 47.9251 73.4066 37.6976C73.4238 37.5505 73.4048 37.4014 73.3513 37.2633C73.2979 37.1252 73.2116 37.0022 73.0999 36.9049C72.9882 36.8076 72.8545 36.7391 72.7104 36.7051C72.5662 36.6711 72.4159 36.6728 72.2726 36.71L72.2731 36.7103ZM39.8688 38.1541C39.1884 33.7416 39.2574 29.246 40.073 24.8565C40.3406 31.8233 41.2494 38.6963 41.2605 38.78C42.137 46.0673 42.5824 53.3999 42.5944 60.7397L41.2907 61.2518C41.2078 54.3652 40.8922 44.8616 39.8688 38.1541ZM33.9378 31.7431C32.3654 28.0044 32.1616 23.831 33.3622 19.9568C33.7983 18.5431 34.4368 17.1999 35.2577 15.9691C37.1278 13.1209 38.6335 10.0496 39.7396 6.82689C42.3508 9.25832 49.0624 16.5632 48.3824 26.8704C47.9074 34.0659 45.3791 38.555 43.3543 41.0473C43.2648 40.2207 43.1684 39.3878 43.0652 38.5486C43.0496 38.4318 41.507 26.7634 41.8755 18.558C41.885 18.3477 41.8211 18.1406 41.6949 17.9721C41.5688 17.8036 41.388 17.6841 41.1836 17.6339C40.9791 17.5837 40.7636 17.6059 40.5737 17.6969C40.3838 17.7878 40.2314 17.9418 40.1423 18.1325C39.9888 18.4611 36.5263 26.0544 37.9018 37.1982C37.49 36.689 37.0759 36.2173 36.6595 35.783C35.5131 34.6142 34.5911 33.2448 33.9392 31.7431H33.9378ZM41.3089 63.1997L42.5904 62.6967C42.5724 65.2428 42.5073 67.2423 42.4522 68.5217C42.0693 68.5073 41.6859 68.5151 41.3039 68.545C41.3148 67.3387 41.3238 65.4739 41.3089 63.1997ZM25.6607 83.1967C27.8384 81.6986 29.7731 79.8749 31.3971 77.7894C33.3646 75.2637 35.3716 73.2636 37.3624 71.8447C38.8622 70.7602 40.692 70.23 42.5392 70.3448C44.3864 70.4596 46.1364 71.2122 47.4904 72.474C48.8387 73.7914 49.8864 75.3845 50.5618 77.1444C51.0332 78.3914 51.5987 79.6008 52.2534 80.762C52.814 81.7444 53.348 82.5639 53.7891 83.1967H25.6607ZM54.3836 78.2141C55.3479 79.8113 56.5825 81.2288 58.0322 82.4034C58.3912 82.6894 58.7553 82.9541 59.1246 83.1977H56.0516C55.2336 82.1402 54.4926 81.0253 53.8344 79.8615C53.2251 78.7798 52.6989 77.6533 52.2603 76.4918C51.9528 75.7008 51.5808 74.9363 51.1483 74.2062C52.4017 75.3909 53.49 76.7389 54.3836 78.2141ZM58.6687 45.7285C59.4878 45.6356 60.3115 45.5902 61.1359 45.5927C61.3376 45.6071 61.54 45.6106 61.7422 45.6033C61.3108 45.7887 60.8577 45.9187 60.3937 45.9901C59.3664 45.9983 50.5462 46.3764 44.3573 56.5838C44.3433 56.0013 44.3268 55.4055 44.3067 54.7958C44.3176 54.7801 44.3305 54.7672 44.3406 54.7505C44.7792 54.0166 45.2672 53.3134 45.8014 52.6458C48.9027 48.7687 53.4722 46.3121 58.6687 45.7285Z" fill="#172B4D"/>
<path d="M79.4191 13.3024H56.9222C56.3408 13.2979 55.7642 13.4085 55.2258 13.6279C54.6873 13.8472 54.1976 14.171 53.7849 14.5806C53.3722 14.9901 53.0446 15.4773 52.8211 16.014C52.5975 16.5507 52.4824 17.1264 52.4824 17.7078C52.4824 18.2893 52.5975 18.8649 52.8211 19.4017C53.0446 19.9384 53.3722 20.4256 53.7849 20.8351C54.1976 21.2447 54.6873 21.5685 55.2258 21.7878C55.7642 22.0072 56.3408 22.1178 56.9222 22.1133H79.4191C80.0005 22.1178 80.5771 22.0072 81.1155 21.7878C81.654 21.5685 82.1437 21.2447 82.5564 20.8351C82.9691 20.4256 83.2967 19.9384 83.5202 19.4017C83.7438 18.8649 83.8589 18.2893 83.8589 17.7078C83.8589 17.1264 83.7438 16.5507 83.5202 16.014C83.2967 15.4773 82.9691 14.9901 82.5564 14.5806C82.1437 14.171 81.654 13.8472 81.1155 13.6279C80.5771 13.4085 80.0005 13.2979 79.4191 13.3024ZM54.3364 17.708C54.3371 17.0224 54.6097 16.365 55.0945 15.8802C55.5793 15.3954 56.2366 15.1227 56.9222 15.1219H63.6634V20.2938H56.9222C56.2366 20.2931 55.5793 20.0204 55.0945 19.5356C54.6097 19.0509 54.3371 18.3936 54.3364 17.708ZM79.4191 20.2938H65.4829V15.1219H79.4191C79.7609 15.1185 80.1 15.1828 80.4168 15.3112C80.7335 15.4396 81.0217 15.6295 81.2646 15.87C81.5075 16.1105 81.7004 16.3967 81.832 16.7122C81.9636 17.0276 82.0313 17.366 82.0313 17.7078C82.0313 18.0497 81.9636 18.3881 81.832 18.7035C81.7004 19.019 81.5075 19.3052 81.2646 19.5457C81.0217 19.7862 80.7335 19.9761 80.4168 20.1045C80.1 20.2329 79.7609 20.2972 79.4191 20.2938Z" fill="#172B4D"/>
<path d="M79.4191 0.0157574H56.9222C56.3408 0.01125 55.7642 0.121873 55.2258 0.341248C54.6873 0.560623 54.1976 0.884411 53.7849 1.29394C53.3722 1.70348 53.0446 2.19066 52.8211 2.72739C52.5975 3.26413 52.4824 3.8398 52.4824 4.42123C52.4824 5.00265 52.5975 5.57833 52.8211 6.11506C53.0446 6.6518 53.3722 7.13898 53.7849 7.54851C54.1976 7.95804 54.6873 8.28183 55.2258 8.50121C55.7642 8.72058 56.3408 8.8312 56.9222 8.8267H79.4191C80.0005 8.8312 80.5771 8.72058 81.1155 8.50121C81.654 8.28183 82.1437 7.95804 82.5564 7.54851C82.9691 7.13898 83.2967 6.6518 83.5202 6.11506C83.7438 5.57833 83.8589 5.00265 83.8589 4.42123C83.8589 3.8398 83.7438 3.26413 83.5202 2.72739C83.2967 2.19066 82.9691 1.70348 82.5564 1.29394C82.1437 0.884411 81.654 0.560623 81.1155 0.341248C80.5771 0.121873 80.0005 0.01125 79.4191 0.0157574ZM54.3364 4.42136C54.3371 3.73575 54.6097 3.07843 55.0945 2.5936C55.5793 2.10878 56.2366 1.83607 56.9222 1.8353H73.0235V7.00716H56.9222C56.2366 7.00646 55.5793 6.7338 55.0945 6.24902C54.6097 5.76424 54.3371 5.10694 54.3364 4.42136ZM79.4191 7.00716H74.8419V1.8353H79.4191C79.7609 1.83184 80.1 1.89617 80.4168 2.02457C80.7335 2.15298 81.0217 2.34291 81.2646 2.58338C81.5075 2.82384 81.7004 3.11008 81.832 3.42554C81.9636 3.741 82.0313 4.07942 82.0313 4.42123C82.0313 4.76304 81.9636 5.10145 81.832 5.41691C81.7004 5.73237 81.5075 6.01861 81.2646 6.25908C81.0217 6.49955 80.7335 6.68948 80.4168 6.81788C80.1 6.94628 79.7609 7.01062 79.4191 7.00716Z" fill="#172B4D"/>
</svg>
