<svg width="88" height="89" viewBox="0 0 88 89" fill="none" xmlns="http://www.w3.org/2000/svg">
<path d="M45.1545 39.8208C42.0615 39.7883 39.0473 38.8413 36.4914 37.0993C33.9354 35.3572 31.952 32.8979 30.7909 30.0309C29.6298 27.164 29.3428 24.0176 29.9661 20.9879C30.5894 17.9582 32.0952 15.1806 34.2938 13.0049C36.4924 10.8292 39.2856 9.3526 42.3217 8.76103C45.3577 8.16946 48.501 8.48936 51.3556 9.68046C54.2102 10.8716 56.6486 12.8806 58.3639 15.4546C60.0791 18.0287 60.9944 21.0527 60.9945 24.1458C60.9655 28.3227 59.282 32.3178 56.313 35.2559C53.344 38.194 49.3315 39.8355 45.1545 39.8208ZM45.1545 13.9708C43.1495 14.0033 41.1987 14.6276 39.5473 15.7652C37.8958 16.9029 36.6174 18.5031 35.8725 20.365C35.1276 22.2269 34.9495 24.2673 35.3606 26.2301C35.7716 28.1928 36.7535 29.9904 38.1828 31.3969C39.6122 32.8035 41.4253 33.7563 43.3944 34.1357C45.3635 34.5151 47.4009 34.3042 49.2505 33.5295C51.1001 32.7547 52.6796 31.4507 53.7905 29.7812C54.9015 28.1117 55.4943 26.1512 55.4945 24.1458C55.4655 21.4276 54.3616 18.8315 52.424 16.9248C50.4864 15.0182 47.8728 13.9561 45.1545 13.9708Z" fill="#172B4D"/>
<path d="M45.1545 39.8208C42.0615 39.7883 39.0473 38.8413 36.4914 37.0993C33.9354 35.3572 31.952 32.8979 30.7909 30.0309C29.6298 27.164 29.3428 24.0176 29.9661 20.9879C30.5894 17.9582 32.0952 15.1806 34.2938 13.0049C36.4924 10.8292 39.2856 9.3526 42.3217 8.76103C45.3577 8.16946 48.501 8.48936 51.3556 9.68046C54.2102 10.8716 56.6486 12.8806 58.3639 15.4546C60.0791 18.0287 60.9944 21.0527 60.9945 24.1458C60.9655 28.3227 59.282 32.3178 56.313 35.2559C53.344 38.194 49.3315 39.8355 45.1545 39.8208ZM45.1545 13.9708C43.1495 14.0033 41.1987 14.6276 39.5473 15.7652C37.8958 16.9029 36.6174 18.5031 35.8725 20.365C35.1276 22.2269 34.9495 24.2673 35.3606 26.2301C35.7716 28.1928 36.7535 29.9904 38.1828 31.3969C39.6122 32.8035 41.4253 33.7563 43.3944 34.1357C45.3635 34.5151 47.4009 34.3042 49.2505 33.5295C51.1001 32.7547 52.6796 31.4507 53.7905 29.7812C54.9015 28.1117 55.4943 26.1512 55.4945 24.1458C55.4655 21.4276 54.3616 18.8315 52.424 16.9248C50.4864 15.0182 47.8728 13.9561 45.1545 13.9708Z" fill="#172B4D"/>
<path d="M54.7517 43.5052C42.5542 41.3828 29.9972 43.3146 19.0017 49.0052C18.2212 49.4386 17.5749 50.0783 17.1335 50.8544C16.6922 51.6304 16.4727 52.5129 16.4992 53.4052V63.1952C16.4992 63.9246 16.7889 64.6241 17.3047 65.1398C17.8204 65.6555 18.5199 65.9452 19.2492 65.9452C19.9786 65.9452 20.678 65.6555 21.1938 65.1398C21.7095 64.6241 21.9992 63.9246 21.9992 63.1952V53.7627C32.1953 48.6467 43.7902 47.0235 54.9992 49.1427L54.7517 43.5052Z" fill="#172B4D"/>
<path d="M85.25 55.4675H66.825V51.3975C66.825 50.6681 66.5353 49.9686 66.0195 49.4529C65.5038 48.9372 64.8043 48.6475 64.075 48.6475C63.3457 48.6475 62.6462 48.9372 62.1305 49.4529C61.6147 49.9686 61.325 50.6681 61.325 51.3975V55.4675H41.25C40.5207 55.4675 39.8212 55.7572 39.3055 56.2729C38.7897 56.7886 38.5 57.4881 38.5 58.2175V85.7175C38.5 86.4468 38.7897 87.1463 39.3055 87.662C39.8212 88.1777 40.5207 88.4675 41.25 88.4675H85.25C85.9793 88.4675 86.6788 88.1777 87.1945 87.662C87.7103 87.1463 88 86.4468 88 85.7175V58.2175C88 57.4881 87.7103 56.7886 87.1945 56.2729C86.6788 55.7572 85.9793 55.4675 85.25 55.4675ZM82.5 82.9675H44V60.9675H61.325V62.095C61.325 62.8243 61.6147 63.5238 62.1305 64.0395C62.6462 64.5552 63.3457 64.845 64.075 64.845C64.8043 64.845 65.5038 64.5552 66.0195 64.0395C66.5353 63.5238 66.825 62.8243 66.825 62.095V60.9675H82.5V82.9675Z" fill="#172B4D"/>
<path d="M54.4775 70.3721H70.8675V74.2221H54.4775V70.3721Z" fill="#172B4D"/>
<path d="M24.31 28.6279C16.6965 28.7553 9.21496 30.6374 2.4475 34.1279C1.7115 34.5167 1.09499 35.0982 0.663891 35.8102C0.232794 36.5223 0.00331883 37.3381 0 38.1704V46.6954C0 47.4248 0.289731 48.1242 0.805456 48.64C1.32118 49.1557 2.02065 49.4454 2.75 49.4454C3.47935 49.4454 4.17882 49.1557 4.69454 48.64C5.21027 48.1242 5.5 47.4248 5.5 46.6954V38.7204C11.9661 35.5019 19.125 33.9247 26.345 34.1279C25.4004 32.4044 24.7147 30.5512 24.31 28.6279Z" fill="#172B4D"/>
<path d="M85.5519 34.0996C79.4822 30.9157 72.8116 29.0419 65.9719 28.5996C65.5691 30.5195 64.893 32.3717 63.9644 34.0996C70.4078 34.2538 76.7373 35.8315 82.4994 38.7196V46.6946C82.4994 47.424 82.7891 48.1234 83.3048 48.6392C83.8205 49.1549 84.52 49.4446 85.2494 49.4446C85.9787 49.4446 86.6782 49.1549 87.1939 48.6392C87.7096 48.1234 87.9994 47.424 87.9994 46.6946V38.1696C88.001 37.3326 87.7739 36.511 87.3425 35.7937C86.9112 35.0764 86.292 34.4906 85.5519 34.0996Z" fill="#172B4D"/>
<path d="M23.8154 24.1447C23.8154 23.5122 23.8154 22.9072 23.8154 22.3022C21.6611 22.0139 19.701 20.9059 18.3431 19.2087C16.9852 17.5116 16.3342 15.3561 16.5255 13.1911C16.7169 11.026 17.7358 9.01813 19.3703 7.58546C21.0048 6.15279 23.1289 5.4057 25.3004 5.49971C27.559 5.49562 29.7299 6.37384 31.3504 7.94721C32.7801 6.76795 34.3504 5.77036 36.0254 4.97721C34.1543 2.82576 31.6753 1.29176 28.9149 0.577399C26.1546 -0.136964 23.2427 0.00184005 20.5628 0.975517C17.883 1.94919 15.561 3.71204 13.9031 6.0317C12.2452 8.35137 11.329 11.119 11.2754 13.9697C11.3331 17.4588 12.6894 20.801 15.0795 23.3436C17.4695 25.8862 20.7215 27.4465 24.2004 27.7197C23.9671 26.5417 23.8383 25.3454 23.8154 24.1447Z" fill="#172B4D"/>
<path d="M62.6177 0.000110209C60.7279 0.000526248 58.8571 0.377701 57.1148 1.10958C55.3724 1.84146 53.7935 2.91336 52.4702 4.26261C54.3293 4.93628 56.0874 5.86155 57.6952 7.01261C58.979 6.12141 60.4807 5.59535 62.04 5.49051C63.5993 5.38567 65.1578 5.70598 66.5494 6.41729C67.941 7.12861 69.1134 8.20425 69.9417 9.52954C70.77 10.8548 71.2231 12.3801 71.2527 13.9426C71.2354 15.5476 70.7639 17.1149 69.8927 18.463C69.0216 19.8111 67.7864 20.8849 66.3302 21.5601C66.4409 22.4081 66.496 23.2624 66.4952 24.1176C66.4879 25.223 66.3959 26.3262 66.2202 27.4176C69.216 26.6474 71.8732 24.9084 73.7781 22.4713C75.683 20.0342 76.7288 17.0358 76.7527 13.9426C76.7164 10.2227 75.2094 6.66832 72.561 4.05591C69.9125 1.44351 66.3378 -0.0145985 62.6177 0.000110209Z" fill="#172B4D"/>
</svg>
