<svg width="88" height="94" viewBox="0 0 88 94" fill="none" xmlns="http://www.w3.org/2000/svg">
<path fill-rule="evenodd" clip-rule="evenodd" d="M0 86.1695V0.547852H4.75676V86.1695H0Z" fill="#172B4D"/>
<path fill-rule="evenodd" clip-rule="evenodd" d="M28.5406 12.4393V2.92578H33.2974V12.4393H28.5406Z" fill="#172B4D"/>
<path fill-rule="evenodd" clip-rule="evenodd" d="M45.1893 14.8178H16.6487V38.6016H45.1893V14.8178ZM11.892 10.061V43.3583H49.946V10.061H11.892Z" fill="#172B4D"/>
<path fill-rule="evenodd" clip-rule="evenodd" d="M59.4594 50.4936V60.0071H83.2432V50.4936H59.4594ZM54.7026 64.7638H87.9999V45.7368H54.7026V64.7638Z" fill="#172B4D"/>
<path fill-rule="evenodd" clip-rule="evenodd" d="M11.8919 19.5751H4.75676V33.8454H11.8919V19.5751ZM0 14.8184V38.6021H16.6486V14.8184H0Z" fill="#172B4D"/>
<path fill-rule="evenodd" clip-rule="evenodd" d="M45.1892 38.6021V14.8184H59.4595C72.5948 14.8184 83.2433 25.4668 83.2433 38.6021V50.494H59.4595V43.3589C59.4595 40.7317 57.3299 38.6021 54.7027 38.6021H45.1892ZM64.2162 45.7373H78.4865V38.6021C78.4865 28.0938 69.9679 19.5751 59.4595 19.5751H49.946V33.8454H54.7027C59.9568 33.8454 64.2162 38.1048 64.2162 43.3589V45.7373Z" fill="#172B4D"/>
<path fill-rule="evenodd" clip-rule="evenodd" d="M71.3514 88.548C73.9786 88.548 76.1082 86.4184 76.1082 83.7912C76.1082 81.2549 74.5537 78.154 72.3244 75.2281C71.9983 74.8 71.6713 74.3933 71.3514 74.0113C71.0315 74.3933 70.7045 74.8 70.3784 75.2281C68.1492 78.154 66.5946 81.2549 66.5946 83.7912C66.5946 86.4184 68.7242 88.548 71.3514 88.548ZM71.3514 93.3047C76.6055 93.3047 80.8649 89.0453 80.8649 83.7912C80.8649 75.4669 71.3514 67.1426 71.3514 67.1426C71.3514 67.1426 61.8379 75.4669 61.8379 83.7912C61.8379 89.0453 66.0973 93.3047 71.3514 93.3047Z" fill="#172B4D"/>
<path fill-rule="evenodd" clip-rule="evenodd" d="M52.3242 2.92623C52.3242 4.23976 51.2594 5.30461 49.9459 5.30461H11.8918C10.5783 5.30461 9.51343 4.23976 9.51343 2.92623C9.51343 1.6127 10.5783 0.547852 11.8918 0.547852H49.9459C51.2594 0.547852 52.3242 1.6127 52.3242 2.92623Z" fill="#172B4D"/>
</svg>
