<svg width="40" height="40" viewBox="0 0 40 40" fill="none" xmlns="http://www.w3.org/2000/svg">
<path d="M10.6849 20.3141C10.0991 20.3141 9.82008 20.5931 9.76437 21.0395C9.59695 22.3786 9.29008 24.471 5.97023 24.471C3.26406 24.471 1.84125 23.132 1.84125 20.2027V11.5542C1.84125 8.65281 3.26398 7.31375 5.85852 7.31375C9.17844 7.31375 9.70844 9.48976 9.76422 10.6895C9.79211 11.0801 10.0431 11.3869 10.6848 11.3869C11.3265 11.3869 11.6054 11.1916 11.6054 10.271C11.6054 7.76015 9.51305 5.61203 5.85844 5.61203C2.6782 5.61203 0 7.23008 0 11.5542V20.2026C0 24.5547 2.62242 26.1727 5.77492 26.1727C9.45742 26.1727 11.6055 23.9967 11.6055 21.458C11.6055 20.5374 11.3266 20.3141 10.6849 20.3141Z" fill="#008A4A"/>
<path d="M20.3931 5.61203C17.1291 5.61203 14.5904 7.23016 14.5904 11.5543V20.2027C14.5904 24.5548 17.1291 26.1729 20.3931 26.1729C23.6571 26.1729 26.1959 24.5548 26.1959 20.2027V11.5542C26.1959 7.23008 23.6571 5.61203 20.3931 5.61203ZM24.3547 20.2026C24.3547 23.1319 22.8761 24.4709 20.3932 24.4709C17.9103 24.4709 16.4317 23.1319 16.4317 20.2026V11.5542C16.4317 8.65281 17.9103 7.31375 20.3932 7.31375C22.8761 7.31375 24.3547 8.65281 24.3547 11.5542V20.2026Z" fill="#008A4A"/>
<path d="M39.3305 32.6862H30.431V30.9566C30.431 27.2461 39.8047 25.349 39.8047 19.351C39.8047 16.338 37.4612 13.9946 34.253 13.9946C31.2958 13.9946 29.0082 15.9475 29.0082 18.6257C29.0082 19.4627 29.2872 19.7695 29.8452 19.7695C30.4868 19.7695 30.8216 19.3789 30.8216 19.0162C30.8216 16.8123 32.2722 15.7243 34.1972 15.7243C36.7639 15.7243 37.9635 17.6493 37.9635 19.4068C37.9635 24.2891 28.5339 26.3255 28.5339 30.9566V33.6627C28.5339 34.1091 29.0361 34.388 29.3988 34.388H39.3305C39.6932 34.388 40 33.9695 40 33.5232C40 33.0769 39.6932 32.6862 39.3305 32.6862Z" fill="#008A4A"/>
</svg>
