<svg width="43" height="40" viewBox="0 0 43 40" fill="none" xmlns="http://www.w3.org/2000/svg">
<path d="M16 27.5C16 31.0899 13.0899 34 9.5 34C5.91015 34 3 31.0898 3 27.5C3 26.872 3.00359 26.4429 3.10021 25.9143C3.19634 25.3884 3.40079 24.6902 3.87985 23.6475C4.72402 21.8102 6.34968 19.0514 9.5 14.4882C12.6503 19.0514 14.276 21.8102 15.1201 23.6475C15.5992 24.6902 15.8037 25.3884 15.8998 25.9143C15.9964 26.4429 16 26.872 16 27.5Z" stroke="#008A4A" stroke-width="4"/>
<path d="M22.52 10.24C22.52 11.7643 21.2843 13 19.76 13C18.2357 13 17 11.7643 17 10.24C17 9.88704 17.0036 9.71918 17.0418 9.51026C17.0795 9.30407 17.167 8.98393 17.4124 8.45C17.7883 7.63187 18.4793 6.42657 19.76 4.51686C21.0407 6.42657 21.7317 7.63186 22.1076 8.45C22.353 8.98393 22.4405 9.30407 22.4782 9.51026C22.5164 9.71918 22.52 9.88704 22.52 10.24Z" stroke="#008A4A" stroke-width="4"/>
<path d="M2 38L38 38" stroke="#008A4A" stroke-width="2" stroke-linecap="round"/>
<path d="M20 28L28 28C30.2092 28 32 26.2091 32 24L32 3.99987" stroke="#008A4A" stroke-width="2" stroke-linecap="round"/>
<path d="M37 7L32 2L27 7" stroke="#008A4A" stroke-width="2" stroke-linecap="round"/>
</svg>
