<svg width="40" height="40" viewBox="0 0 40 40" fill="none" xmlns="http://www.w3.org/2000/svg">
<path d="M11.0417 28.9583L23.1667 23.2083L28.9167 11.0833L16.7917 16.8333L11.0417 28.9583ZM20 21.6667C19.5278 21.6667 19.132 21.5069 18.8125 21.1875C18.4931 20.868 18.3334 20.4722 18.3334 20C18.3334 19.5278 18.4931 19.1319 18.8125 18.8125C19.132 18.493 19.5278 18.3333 20 18.3333C20.4722 18.3333 20.8681 18.493 21.1875 18.8125C21.507 19.1319 21.6667 19.5278 21.6667 20C21.6667 20.4722 21.507 20.868 21.1875 21.1875C20.8681 21.5069 20.4722 21.6667 20 21.6667ZM20 37.3333C17.6111 37.3333 15.3681 36.875 13.2709 35.9583C11.1736 35.0417 9.3403 33.7986 7.77085 32.2292C6.20141 30.6597 4.95835 28.8194 4.04169 26.7083C3.12502 24.5972 2.66669 22.3611 2.66669 20C2.66669 17.6111 3.12502 15.3611 4.04169 13.25C4.95835 11.1389 6.20141 9.2986 7.77085 7.72916C9.3403 6.15971 11.1806 4.9236 13.2917 4.02082C15.4028 3.11805 17.6389 2.66666 20 2.66666C22.3889 2.66666 24.6389 3.11805 26.75 4.02082C28.8611 4.9236 30.7014 6.15971 32.2709 7.72916C33.8403 9.2986 35.0764 11.1389 35.9792 13.25C36.882 15.3611 37.3334 17.625 37.3334 20.0417C37.3334 22.4028 36.882 24.6319 35.9792 26.7292C35.0764 28.8264 33.8403 30.6597 32.2709 32.2292C30.7014 33.7986 28.8611 35.0417 26.75 35.9583C24.6389 36.875 22.3889 37.3333 20 37.3333ZM20 34.2917C23.9722 34.2917 27.3472 32.8958 30.125 30.1042C32.9028 27.3125 34.2917 23.9444 34.2917 20C34.2917 16.0278 32.9028 12.6528 30.125 9.87499C27.3472 7.09721 23.9722 5.70832 20 5.70832C16.0556 5.70832 12.6875 7.09721 9.89585 9.87499C7.10419 12.6528 5.70835 16.0278 5.70835 20C5.70835 23.9444 7.10419 27.3125 9.89585 30.1042C12.6875 32.8958 16.0556 34.2917 20 34.2917Z" fill="#008A4A"/>
</svg>
