<svg width="40" height="40" viewBox="0 0 40 40" fill="none" xmlns="http://www.w3.org/2000/svg">
<g clip-path="url(#clip0_227_909)">
<path d="M20 35.5417C16.6111 35.5417 13.7292 34.3542 11.3542 31.9792C8.97917 29.6042 7.79167 26.7222 7.79167 23.3333C7.79167 20.6111 8.59722 18.1736 10.2083 16.0208C11.8194 13.868 13.9306 12.4305 16.5417 11.7083C14.6528 11.2361 13.2014 10.2153 12.1875 8.64583C11.1736 7.07638 10.625 5.33333 10.5417 3.41666C10.6528 3.33333 10.7222 3.26388 10.75 3.20833C10.7778 3.15277 10.7361 3.08333 10.625 2.99999C9.56944 2.97222 8.53472 2.75694 7.52083 2.35416C6.50694 1.95138 5.66667 1.22222 5 0.166663C8.91667 -0.527782 12.4028 0.201385 15.4583 2.35416C18.5139 4.50694 20.1111 7.37499 20.25 10.9583C20.6389 9.7361 21.1875 8.58333 21.8958 7.49999C22.6042 6.41666 23.4306 5.40277 24.375 4.45833C24.7361 4.09722 25.1458 3.91666 25.6042 3.91666C26.0625 3.91666 26.4722 4.09722 26.8333 4.45833C27.1944 4.81944 27.375 5.22916 27.375 5.68749C27.375 6.14583 27.1944 6.56944 26.8333 6.95833C26.1667 7.62499 25.5764 8.35416 25.0625 9.14583C24.5486 9.93749 24.0972 10.7639 23.7083 11.625C26.2639 12.4305 28.3264 13.9097 29.8958 16.0625C31.4653 18.2153 32.25 20.6389 32.25 23.3333C32.25 26.7222 31.0556 29.6042 28.6667 31.9792C26.2778 34.3542 23.3889 35.5417 20 35.5417ZM20 31.7083C22.3333 31.7083 24.3264 30.8958 25.9792 29.2708C27.6319 27.6458 28.4583 25.6667 28.4583 23.3333C28.4583 21 27.6389 19.0069 26 17.3542C24.3611 15.7014 22.3611 14.875 20 14.875C17.6667 14.875 15.6875 15.6944 14.0625 17.3333C12.4375 18.9722 11.625 20.9722 11.625 23.3333C11.625 25.6667 12.4375 27.6458 14.0625 29.2708C15.6875 30.8958 17.6667 31.7083 20 31.7083Z" fill="#008A4A"/>
</g>
<defs>
<clipPath id="clip0_227_909">
<rect width="40" height="40" fill="white"/>
</clipPath>
</defs>
</svg>
