<svg xmlns="http://www.w3.org/2000/svg" viewBox="0 0 400 400" width="400" height="400">
  <g transform="matrix(1, 0, 0, 1, -147.922424, -75.900276)">
    <path d="m488.43 374.85c-15.328 0.070313-29.988-6.2773-40.426-17.5-7.2617-8.3359-17.777-13.121-28.832-13.121-11.055 0-21.57 4.7852-28.832 13.121-10.445 11.227-25.09 17.605-40.422 17.605-15.336 0-29.98-6.3789-40.426-17.605-7.2461-8.332-17.746-13.117-28.789-13.117-11.039 0-21.543 4.7852-28.785 13.117-10.445 11.227-25.09 17.605-40.426 17.605-15.336 0-29.98-6.3789-40.426-17.605-7.2852-8.2812-17.758-13.055-28.789-13.125-4.832 0-8.75-3.918-8.75-8.75 0-4.8359 3.918-8.75 8.75-8.75 15.324-0.039062 29.969 6.3008 40.426 17.5 7.2461 8.332 17.746 13.113 28.789 13.113 11.039 0 21.543-4.7812 28.785-13.113 10.445-11.23 25.09-17.609 40.426-17.609 15.336 0 29.98 6.3789 40.426 17.609 7.2617 8.3359 17.777 13.117 28.832 13.117 11.055 0 21.57-4.7812 28.832-13.117 10.445-11.23 25.09-17.609 40.422-17.609 15.336 0 29.98 6.3789 40.426 17.609 7.2617 8.3359 17.777 13.117 28.832 13.117s21.57-4.7812 28.832-13.117c10.457-11.199 25.102-17.539 40.426-17.5 4.832 0 8.75 3.9141 8.75 8.75 0 4.832-3.918 8.75-8.75 8.75-11.051 0.089844-21.543 4.8594-28.875 13.125-10.441 11.223-25.098 17.57-40.426 17.5z"/>
    <path d="m488.43 433.56c-15.32 0.039062-29.969-6.3008-40.426-17.5-7.2617-8.3359-17.777-13.121-28.832-13.121-11.055 0-21.57 4.7852-28.832 13.121-10.445 11.227-25.09 17.605-40.422 17.605-15.336 0-29.98-6.3789-40.426-17.605-7.2461-8.332-17.746-13.117-28.789-13.117-11.039 0-21.543 4.7852-28.785 13.117-10.445 11.227-25.09 17.605-40.426 17.605-15.336 0-29.98-6.3789-40.426-17.605-7.1758-8.4805-17.68-13.426-28.789-13.562-4.832 0-8.75-3.918-8.75-8.75s3.918-8.75 8.75-8.75c15.324-0.039062 29.969 6.3008 40.426 17.5 7.2148 8.3867 17.727 13.207 28.789 13.207s21.574-4.8203 28.785-13.207c10.488-11.156 25.117-17.484 40.426-17.484 15.312 0 29.941 6.3281 40.426 17.484 7.2305 8.3906 17.758 13.211 28.832 13.211s21.602-4.8203 28.832-13.211c10.484-11.156 25.113-17.484 40.422-17.484 15.312 0 29.941 6.3281 40.426 17.484 7.2305 8.3906 17.758 13.211 28.832 13.211s21.602-4.8203 28.832-13.211c10.457-11.199 25.102-17.539 40.426-17.5 4.832 0 8.75 3.918 8.75 8.75s-3.918 8.75-8.75 8.75c-11.059 0.046875-21.57 4.8242-28.875 13.125-10.383 11.359-25.039 17.863-40.426 17.938z"/>
    <path d="m488.43 492.19c-15.32 0.039062-29.969-6.3008-40.426-17.5-7.2305-8.3906-17.758-13.211-28.832-13.211s-21.602 4.8203-28.832 13.211c-10.484 11.156-25.113 17.484-40.422 17.484-15.312 0-29.941-6.3281-40.426-17.484-7.2148-8.3867-17.727-13.207-28.789-13.207s-21.574 4.8203-28.785 13.207c-10.488 11.156-25.117 17.484-40.426 17.484-15.312 0-29.941-6.3281-40.426-17.484-7.25-8.3398-17.738-13.152-28.789-13.211-4.832 0-8.75-3.918-8.75-8.75 0-4.8359 3.918-8.75 8.75-8.75 15.324-0.039062 29.969 6.3008 40.426 17.5 7.2461 8.332 17.746 13.113 28.789 13.113 11.039 0 21.543-4.7812 28.785-13.113 10.445-11.23 25.09-17.609 40.426-17.609 15.336 0 29.98 6.3789 40.426 17.609 7.2617 8.3359 17.777 13.117 28.832 13.117 11.055 0 21.57-4.7812 28.832-13.117 10.445-11.23 25.09-17.609 40.422-17.609 15.336 0 29.98 6.3789 40.426 17.609 7.2617 8.3359 17.777 13.117 28.832 13.117s21.57-4.7812 28.832-13.117c10.457-11.199 25.102-17.539 40.426-17.5 4.832 0 8.75 3.9141 8.75 8.75 0 4.832-3.918 8.75-8.75 8.75-11.07 0.078126-21.578 4.8867-28.875 13.211-10.461 11.199-25.105 17.539-40.426 17.5z"/>
    <path d="m196.26 301.7c-4.832 0-8.75-3.918-8.75-8.75 0.17188-8.3398 3.8594-16.223 10.152-21.699 3.5859-3.8516 5.25-5.6875 5.25-10.062s-1.6641-6.2109-5.25-10.062c-6.4062-5.5781-10.105-13.645-10.152-22.137 0.089843-8.4922 3.7422-16.555 10.062-22.227 3.6758-3.7617 5.3359-5.6875 5.3359-10.062h0.003906c0-4.832 3.9141-8.75 8.75-8.75 4.832 0 8.75 3.918 8.75 8.75-0.17187 8.5-3.9609 16.52-10.414 22.051-3.5859 3.7617-5.25 5.6875-5.25 10.062s1.6641 6.2109 5.25 10.062c6.4414 5.5508 10.145 13.633 10.145 22.137 0 8.5039-3.7031 16.586-10.145 22.137-3.5859 3.8516-5.25 5.6875-5.25 10.062-0.13672 4.6328-3.8594 8.3516-8.4883 8.4883z"/>
    <path d="m230.65 182.09c-3.1367 0.015624-6.043-1.6562-7.6094-4.375l-11.465-20.211-11.551 19.949c-1.168 2.0117-3.0898 3.4727-5.3398 4.0625-2.2461 0.59375-4.6406 0.26562-6.6445-0.91016-4.1367-2.4336-5.543-7.7422-3.1523-11.902l19.074-33.074c1.5664-2.6992 4.4492-4.3594 7.5703-4.3594s6.0039 1.6602 7.5703 4.3594l19.074 33.074c2.3906 4.1602 0.98438 9.4688-3.1523 11.902-1.2969 0.87891-2.8086 1.3906-4.375 1.4844z"/>
    <path d="m339.85 253.75c-4.8359 0-8.75-3.918-8.75-8.75-0.054687-8.6172 3.6523-16.828 10.148-22.488 3.5859-3.8516 5.25-5.6875 5.25-10.062s-1.6641-6.3008-5.3359-10.062c-6.3945-5.5977-10.059-13.684-10.059-22.18 0-8.5 3.6641-16.582 10.059-22.184 3.6758-3.8516 5.3359-5.6875 5.3359-10.062 0-4.832 3.918-8.75 8.75-8.75s8.75 3.918 8.75 8.75c-0.046875 8.4961-3.7461 16.559-10.148 22.141-3.6758 3.8516-5.25 5.7734-5.25 10.062 0 4.2891 1.5742 6.3008 5.25 10.148 6.4414 5.5508 10.145 13.633 10.145 22.137 0 8.5039-3.7031 16.586-10.145 22.137-3.6758 3.7617-5.25 5.6875-5.25 10.062 0.09375 2.3828-0.78516 4.6992-2.4375 6.418-1.6523 1.7148-3.9297 2.6836-6.3125 2.6836z"/>
    <path d="m374.24 133.7c-3.1406 0.011719-6.043-1.6562-7.6133-4.375l-11.551-19.949-11.461 19.949c-2.418 4.2031-7.7852 5.6562-11.988 3.2383s-5.6523-7.7852-3.2383-11.988l19.164-33.074c1.5547-2.6914 4.418-4.3555 7.5234-4.375 3.1406-0.011719 6.043 1.6562 7.6133 4.375l19.074 33.074c1.1758 2.0078 1.5039 4.3984 0.91406 6.6484-0.58984 2.25-2.0547 4.1719-4.0625 5.3398-1.3359 0.75391-2.8438 1.1484-4.375 1.1367z"/>
    <path d="m483.44 296.36c-4.832 0-8.75-3.918-8.75-8.75 0.058594-8.4727 3.7188-16.523 10.062-22.137 3.6758-3.7617 5.3359-5.6875 5.3359-10.062s-1.6641-6.2109-5.3359-10.062c-6.3867-5.5859-10.055-13.656-10.055-22.141 0-8.4844 3.668-16.555 10.055-22.137 3.6758-3.8516 5.3359-5.7734 5.3359-10.062 0-4.832 3.918-8.75 8.75-8.75 4.8359 0 8.75 3.918 8.75 8.75-0.046876 8.4961-3.7422 16.559-10.148 22.137-3.6758 3.7617-5.25 5.6875-5.25 10.062s1.5742 6.2109 5.25 10.062c6.4414 5.5547 10.145 13.637 10.145 22.141 0 8.5039-3.7031 16.586-10.145 22.137-3.6758 3.8516-5.25 5.6875-5.25 10.062 0 2.3203-0.92188 4.5469-2.5625 6.1875s-3.8672 2.5625-6.1875 2.5625z"/>
    <path d="m517.82 176.75c-3.1367 0.011719-6.043-1.6562-7.6133-4.375l-11.461-19.949-11.551 19.949c-2.4141 4.2031-7.7812 5.6523-11.988 3.2383-4.2031-2.418-5.6523-7.7852-3.2344-11.988l19.164-33.074h-0.003906c1.5664-2.6992 4.4492-4.3594 7.5703-4.3594 3.1172 0 6.0039 1.6602 7.5664 4.3594l18.727 33.074c2.3906 4.1602 0.98438 9.4688-3.1484 11.898-1.2109 0.75391-2.6016 1.1797-4.0273 1.2266z"/>
  </g>
</svg>