<?xml version="1.0" encoding="iso-8859-1"?>
<!-- Uploaded to: SVG Repo, www.svgrepo.com, Generator: SVG Repo Mixer Tools -->
<!DOCTYPE svg PUBLIC "-//W3C//DTD SVG 1.1//EN" "http://www.w3.org/Graphics/SVG/1.1/DTD/svg11.dtd">
<svg fill="#000000" height="800px" width="800px" version="1.1" id="Capa_1" xmlns="http://www.w3.org/2000/svg" xmlns:xlink="http://www.w3.org/1999/xlink" 
	 viewBox="0 0 229.063 229.063" xml:space="preserve">
<path d="M180.226,42.988c0.337-2.42,0.538-4.858,0.538-7.309c0-19.674-16.013-35.68-35.695-35.68
	c-13.973,0-26.088,8.077-31.94,19.802C56.074,20.557,9.891,67.195,9.891,124.425c0,57.698,46.941,104.639,104.641,104.639
	s104.641-46.941,104.641-104.639C219.172,92.863,204.691,62.77,180.226,42.988z M145.069,15c11.411,0,20.695,9.277,20.695,20.68
	c0,2.876-0.354,5.772-0.973,8.644c-0.018,0.071-0.032,0.142-0.048,0.213c-3.218,14.632-13.351,28.62-19.682,36.248
	c-7.602-9.141-20.675-27.434-20.675-45.105C124.387,24.277,133.665,15,145.069,15z M139.413,124.425
	c0,8.537-0.381,16.88-1.103,24.879H90.752c-0.72-7.993-1.1-16.335-1.1-24.879c0-8.539,0.381-16.883,1.102-24.881h47.542
	C139.03,107.616,139.413,115.95,139.413,124.425z M114.532,214.063c-49.428,0-89.641-40.212-89.641-89.639
	c0-47.707,37.463-86.825,84.515-89.491c-0.005,0.249-0.019,0.496-0.019,0.746c0,18.85,10.815,37.151,19.55,48.864H92.572
	c1.512-9.724,3.587-18.663,6.179-26.437c1.31-3.93-0.813-8.177-4.743-9.487c-3.932-1.31-8.177,0.813-9.487,4.744
	c-3.05,9.148-5.435,19.719-7.1,31.18H45.829c-4.143,0-7.5,3.358-7.5,7.5c0,4.142,3.357,7.5,7.5,7.5h29.868
	c-0.688,8.044-1.044,16.385-1.044,24.881c0,8.5,0.354,16.84,1.04,24.879H45.829c-4.143,0-7.5,3.358-7.5,7.5s3.357,7.5,7.5,7.5
	h31.588c1.701,11.706,4.155,22.478,7.301,31.766c1.059,3.126,3.977,5.096,7.103,5.096c0.798,0,1.609-0.128,2.407-0.398
	c3.923-1.329,6.026-5.586,4.697-9.51c-2.674-7.895-4.807-17.014-6.352-26.953h43.919c-1.512,9.721-3.587,18.66-6.179,26.438
	c-1.309,3.93,0.814,8.177,4.744,9.486c0.787,0.262,1.586,0.387,2.372,0.387c3.141,0,6.067-1.988,7.114-5.131
	c3.049-9.152,5.434-19.722,7.1-31.179h31.592c4.143,0,7.5-3.358,7.5-7.5s-3.357-7.5-7.5-7.5h-29.867
	c0.688-8.044,1.045-16.385,1.045-24.879c0-8.45-0.353-16.785-1.046-24.881h29.868c4.143,0,7.5-3.358,7.5-7.5
	c0-4.142-3.357-7.5-7.5-7.5h-22.029c5.009-6.714,10.69-15.59,14.639-25.5c17.897,16.841,28.328,40.584,28.328,65.38
	C204.172,173.852,163.959,214.063,114.532,214.063z"/>
</svg>