<svg width="40" height="39" viewBox="0 0 40 39" fill="none" xmlns="http://www.w3.org/2000/svg">
<path d="M2.5 33.5908H12.5V35.9772H2.5V33.5908Z" fill="#1A4C31"/>
<path d="M21.25 34.7836C21.0626 34.7836 20.8775 34.7434 20.7086 34.6659C20.5396 34.5884 20.3911 34.4757 20.274 34.336L15.65 28.8177H2.5V26.4314H16.25C16.4374 26.4314 16.6225 26.4716 16.7914 26.5491C16.9604 26.6266 17.1089 26.7394 17.226 26.8791L21.1585 31.5709L27.71 22.19C27.8209 22.0312 27.9701 21.9001 28.145 21.8078C28.3199 21.7154 28.5155 21.6644 28.7154 21.6592C28.9152 21.6539 29.1134 21.6944 29.2935 21.7773C29.4735 21.8603 29.63 21.9833 29.75 22.1359L33.125 26.4314H37.5V28.8177H32.5C32.3059 28.8178 32.1145 28.7747 31.9409 28.6919C31.7673 28.609 31.6164 28.4887 31.5 28.3405L28.8096 24.9167L22.2898 34.2522C22.1808 34.4084 22.0347 34.5378 21.8635 34.63C21.6922 34.7221 21.5005 34.7743 21.3041 34.7823L21.25 34.7836Z" fill="#1A4C31"/>
<path d="M13.75 19.2724V13.3065H15C16.3256 13.3051 17.5965 12.8018 18.5339 11.907C19.4712 11.0123 19.9985 9.79915 20 8.53378V4.95423H16.25C14.9701 4.95619 13.7403 5.42916 12.8165 6.27473C12.1691 5.15293 11.2184 4.21733 10.0635 3.56538C8.90864 2.91342 7.59174 2.56896 6.25 2.56787H2.5V6.14742C2.50218 8.04548 3.29306 9.86522 4.69911 11.2074C6.10516 12.5495 8.01155 13.3044 10 13.3065H11.25V19.2724H2.5V21.6588H20V19.2724H13.75ZM16.25 7.3406H17.5V8.53378C17.4993 9.16649 17.2357 9.7731 16.767 10.2205C16.2983 10.6679 15.6628 10.9195 15 10.9201H13.75V9.72696C13.7507 9.09425 14.0143 8.48764 14.483 8.04024C14.9517 7.59285 15.5872 7.34123 16.25 7.3406V7.3406ZM10 10.9201C8.67437 10.9187 7.40347 10.4154 6.46611 9.52067C5.52875 8.62592 5.00149 7.41278 5 6.14742V4.95423H6.25C7.57563 4.95566 8.84653 5.45895 9.78389 6.3537C10.7212 7.24845 11.2485 8.46159 11.25 9.72696V10.9201H10Z" fill="#1A4C31"/>
</svg>
