<?xml version="1.0" encoding="UTF-8"?>
<!DOCTYPE svg PUBLIC "-//W3C//DTD SVG 1.1//EN" "http://www.w3.org/Graphics/SVG/1.1/DTD/svg11.dtd">
<svg xmlns="http://www.w3.org/2000/svg" version="1.1" width="512px" height="512px" style="shape-rendering:geometricPrecision; text-rendering:geometricPrecision; image-rendering:optimizeQuality; fill-rule:evenodd; clip-rule:evenodd" xmlns:xlink="http://www.w3.org/1999/xlink">
<g><path style="opacity:0.933" fill="#000000" d="M 196.5,-0.5 C 205.5,-0.5 214.5,-0.5 223.5,-0.5C 273.201,3.93298 314.367,24.933 347,62.5C 351.21,54.575 356.043,47.075 361.5,40C 399.167,39.3333 436.833,39.3333 474.5,40C 478.723,42.9954 479.889,46.8288 478,51.5C 476.786,53.0488 475.286,54.2155 473.5,55C 438.829,55.1668 404.162,55.6668 369.5,56.5C 366.252,62.6641 362.752,68.6641 359,74.5C 360.539,80.2444 363.205,85.5777 367,90.5C 386.56,127.196 394.06,166.196 389.5,207.5C 398.077,210.577 403.244,216.577 405,225.5C 405.667,290.167 405.667,354.833 405,419.5C 400.42,427.067 395.42,427.401 390,420.5C 389.99,355.443 389.323,290.443 388,225.5C 387.097,224.299 385.931,223.465 384.5,223C 365.743,222.026 347.076,222.36 328.5,224C 327.667,224.833 326.833,225.667 326,226.5C 325.5,316.166 325.333,405.833 325.5,495.5C 346.833,495.5 368.167,495.5 389.5,495.5C 389.333,478.163 389.5,460.83 390,443.5C 394.3,438.554 398.967,438.221 404,442.5C 405.644,463.744 405.977,485.078 405,506.5C 403.975,508.687 402.475,510.354 400.5,511.5C 371.833,511.5 343.167,511.5 314.5,511.5C 312.897,510.404 311.397,509.07 310,507.5C 309.667,448.167 309.333,388.833 309,329.5C 277.995,350.128 243.829,359.628 206.5,358C 205.333,356.833 204.167,355.667 203,354.5C 202.5,298.834 202.333,243.168 202.5,187.5C 147.499,187.667 92.499,187.5 37.5,187C 34.4265,186.261 32.2598,184.428 31,181.5C 30.3513,138.276 43.518,99.9423 70.5,66.5C 80.0611,62.8857 84.2278,66.219 83,76.5C 61.2044,104.211 49.0377,135.711 46.5,171C 102.5,171.333 158.5,171.667 214.5,172C 216.049,173.214 217.215,174.714 218,176.5C 218.5,231.832 218.667,287.166 218.5,342.5C 252.192,340.883 282.358,329.883 309,309.5C 309.333,280.833 309.667,252.167 310,223.5C 312.929,214.904 318.763,209.404 327.5,207C 342.167,206.667 356.833,206.333 371.5,206C 378.239,165.361 370.739,127.528 349,92.5C 340.08,108.006 331.413,123.672 323,139.5C 318.947,144.008 314.28,144.674 309,141.5C 307.543,138.634 307.21,135.634 308,132.5C 318.183,114.323 328.35,96.1567 338.5,78C 305.585,37.7111 262.918,16.8777 210.5,15.5C 168.4,16.0664 131.733,30.233 100.5,58C 89.84,59.8463 86.34,55.6797 90,45.5C 120.561,18.8044 156.061,3.47106 196.5,-0.5 Z"/></g>
<g><path style="opacity:0.927" fill="#000000" d="M 393.5,9.5 C 420.502,9.33336 447.502,9.50003 474.5,10C 481.288,15.4392 480.955,20.4392 473.5,25C 447.167,25.6667 420.833,25.6667 394.5,25C 389.776,22.5647 388.276,18.7314 390,13.5C 391.376,12.2949 392.542,10.9616 393.5,9.5 Z"/></g>
<g><path style="opacity:0.925" fill="#000000" d="M 433.5,167.5 C 452.17,167.333 470.836,167.5 489.5,168C 496.172,169.556 498.339,173.722 496,180.5C 495.097,181.701 493.931,182.535 492.5,183C 471.833,183.667 451.167,183.667 430.5,183C 424.474,176.307 425.474,171.14 433.5,167.5 Z"/></g>
<g><path style="opacity:0.922" fill="#000000" d="M 430.5,200.5 C 451.169,200.333 471.836,200.5 492.5,201C 494.333,201.5 495.5,202.667 496,204.5C 497.724,209.731 496.224,213.565 491.5,216C 471.833,216.667 452.167,216.667 432.5,216C 428.488,215.151 426.488,212.651 426.5,208.5C 426.782,205.269 428.115,202.602 430.5,200.5 Z"/></g>
<g><path style="opacity:0.932" fill="#000000" d="M -0.5,229.5 C -0.5,221.833 -0.5,214.167 -0.5,206.5C 1.11327,204.73 3.11327,203.564 5.5,203C 64.5578,202.012 123.558,202.345 182.5,204C 184.333,204.5 185.5,205.667 186,207.5C 186.667,267.167 186.667,326.833 186,386.5C 184.833,387.667 183.667,388.833 182.5,390C 165.977,390.965 149.811,389.132 134,384.5C 125.41,402.015 117.077,419.682 109,437.5C 107.829,438.893 106.329,439.727 104.5,440C 73.7722,440.977 43.1055,440.643 12.5,439C 9.19657,435.205 8.69657,431.038 11,426.5C 11.7504,425.874 12.5838,425.374 13.5,425C 41.5,424.667 69.5,424.333 97.5,424C 104.295,409.575 110.962,395.075 117.5,380.5C 49.729,352.395 10.3957,302.062 -0.5,229.5 Z M 15.5,218.5 C 67.1667,218.5 118.833,218.5 170.5,218.5C 170.5,270.5 170.5,322.5 170.5,374.5C 160.314,373.913 150.314,372.247 140.5,369.5C 143.237,363.457 146.07,357.457 149,351.5C 150.664,342.834 147.164,339 138.5,340C 137.069,340.465 135.903,341.299 135,342.5C 131.59,350.319 127.923,357.986 124,365.5C 58.1494,338.485 21.9828,289.485 15.5,218.5 Z"/></g>
<g><path style="opacity:0.923" fill="#000000" d="M 431.5,232.5 C 451.503,232.333 471.503,232.5 491.5,233C 496.224,235.435 497.724,239.269 496,244.5C 495.167,246 494,247.167 492.5,248C 472.167,248.667 451.833,248.667 431.5,248C 426.465,244.987 425.298,240.82 428,235.5C 429.145,234.364 430.312,233.364 431.5,232.5 Z"/></g>
<g><path style="opacity:0.955" fill="#000000" d="M 511.5,336.5 C 511.5,393.5 511.5,450.5 511.5,507.5C 510.167,508.833 508.833,510.167 507.5,511.5C 478.5,511.5 449.5,511.5 420.5,511.5C 418.304,510.146 416.804,508.146 416,505.5C 415.333,450.5 415.333,395.5 416,340.5C 417.531,330.636 423.031,324.136 432.5,321C 453.5,320.333 474.5,320.333 495.5,321C 503.35,323.685 508.684,328.852 511.5,336.5 Z M 435.5,336.5 C 454.17,336.333 472.836,336.5 491.5,337C 493.333,337.5 494.5,338.667 495,340.5C 496.487,392.107 496.987,443.774 496.5,495.5C 474.833,495.5 453.167,495.5 431.5,495.5C 431.333,444.499 431.5,393.499 432,342.5C 432.564,340.113 433.73,338.113 435.5,336.5 Z"/></g>
<g><path style="opacity:0.927" fill="#000000" d="M 16.5,391.5 C 37.8359,391.333 59.1693,391.5 80.5,392C 88.5774,395.45 89.5774,400.45 83.5,407C 60.1667,407.667 36.8333,407.667 13.5,407C 9.78846,404.487 8.62179,400.987 10,396.5C 11.5631,393.977 13.7298,392.31 16.5,391.5 Z"/></g>
<g><path style="opacity:0.936" fill="#000000" d="M 293.5,511.5 C 264.833,511.5 236.167,511.5 207.5,511.5C 205.525,510.354 204.025,508.687 203,506.5C 202.032,476.785 202.365,447.118 204,417.5C 206.5,411 211,406.5 217.5,404C 228.612,402.879 239.779,402.379 251,402.5C 260.833,402.667 270.667,402.833 280.5,403C 288.087,404.918 293.587,409.418 297,416.5C 298.643,446.772 298.977,477.105 298,507.5C 296.603,509.07 295.103,510.404 293.5,511.5 Z M 223.5,418.5 C 241.503,418.333 259.503,418.5 277.5,419C 278.931,419.465 280.097,420.299 281,421.5C 282.481,446.077 282.981,470.744 282.5,495.5C 261.167,495.5 239.833,495.5 218.5,495.5C 218.333,471.498 218.5,447.498 219,423.5C 220.025,421.313 221.525,419.646 223.5,418.5 Z"/></g>
</svg>
